<svg xmlns="http://www.w3.org/2000/svg" viewBox="0 0 102.57 102.5"><defs><style>.cls-1{opacity:0.6;}.cls-2{fill:#fff;}</style></defs><title>Ресурс 291</title><g id="Слой_2" data-name="Слой 2"><g id="Слой_1-2" data-name="Слой 1"><g class="cls-1"><path class="cls-2" d="M21.46,39,42.07,19.62,88,68.25,67.38,87.64C52.09,71.45,36.84,55.28,21.46,39ZM78.15,67.36A16.07,16.07,0,0,0,77,65.8q-12.3-13-24.62-26.06A8,8,0,0,0,51,38.63a1,1,0,0,0-.75-.16,4,4,0,0,0-2.72,2.42c-.44,1.07.39,1.68,1,2.32Q56.82,52,65.12,60.81c2.69,2.86,5.38,5.73,8.15,8.52a2.66,2.66,0,0,0,2.09.78A4.83,4.83,0,0,0,78.15,67.36ZM42.23,36c1,0,3.05-1.56,3.18-2.44a1.89,1.89,0,0,0-.24-1.32,23.52,23.52,0,0,0-2.66-2.8A1.74,1.74,0,0,0,41,29.14a4.81,4.81,0,0,0-1.86,1.57c-.34.49-.6,1.49-.33,1.88a27,27,0,0,0,2.89,3.18C41.83,35.92,42.11,35.93,42.23,36Z"/><path class="cls-2" d="M25.83,57.14,24.25,59c1.75,1.81,3.58,3.69,5.38,5.6a8.15,8.15,0,0,1,1.31,1.79A2.14,2.14,0,0,1,28,69.19a6.4,6.4,0,0,1-1.25-.88c-2.13-1.92-4.25-3.85-6.46-5.87l-1.37,1.27,1.3,1.36c1.69,1.76,3.43,3.47,5.05,5.29,1.33,1.48.93,3.4-.73,3.93a2.64,2.64,0,0,1-2.84-1c-1.81-1.87-3.6-3.74-5.39-5.62-.24-.25-.44-.54-.73-.9l-1.74,1.85,5.41,5.67c.25.25.5.5.74.76,1.18,1.3,1.28,2.7.26,3.65s-2.33.78-3.56-.38q-2.88-2.7-5.78-5.37c-.23-.21-.48-.39-.75-.61a2.47,2.47,0,0,0-.89,2.77,6.69,6.69,0,0,0,1.34,2.42q6.57,6.93,13.24,13.77c2.57,2.65,4.33,2.65,7,.06l15.81-15.2,1.2-1.12,4.45,4.68c-1.35,1.21-2.7,2.36-4,3.58q-9,8.65-18,17.33a14.22,14.22,0,0,1-1.24,1.09,2.85,2.85,0,0,1-4-.1,11.34,11.34,0,0,1-.94-.89L1.5,77.27c-2-2.1-2-3.59.1-5.63L23.18,50.87c.3-.29.63-.56,1-.89l2.16,2.27c3,3.17,6,6.32,9,9.53.37.4.8,1.23.63,1.55a2.26,2.26,0,0,1-1.6,1.13,3.94,3.94,0,0,1-2.36-1C29.9,61.47,27.94,59.33,25.83,57.14Z"/><path class="cls-2" d="M60,24.21,69.74,34.3a11.07,11.07,0,0,1,1.32,1.51A2.37,2.37,0,0,1,70.52,39a2,2,0,0,1-2.93-.42Q60.4,31,53.24,23.4c-.21-.23-.39-.48-.87-1.06a5.15,5.15,0,0,0,1.11-.68q9.54-9.13,19-18.32c2.19-2.11,3.67-2.07,5.82.15Q89.7,15.24,101,27c2,2.08,2.06,3.55.1,5.46Q91.19,42.11,81.18,51.7a7.06,7.06,0,0,1-.71.56l-3.81-4c.36-.42.66-.82,1-1.17,4.54-4.64,9.07-9.28,13.64-13.88,2.69-2.71,2.76-4.36.13-7.08Q85,19.45,78.57,12.79c-2.37-2.44-4.11-2.5-6.55-.18Q66.34,18,60.69,23.45C60.47,23.66,60.26,23.9,60,24.21Z"/><path class="cls-2" d="M33.09,9.32,12,29.15c-2.67-3-5.36-5.91-7.9-8.95a4.66,4.66,0,0,1-.5-5A8.4,8.4,0,0,1,5.45,12.5C9.09,9,12.8,5.52,16.51,2.07a9.15,9.15,0,0,1,2-1.41,5.19,5.19,0,0,1,6.21.85C27.52,4.06,30.25,6.66,33.09,9.32ZM8.54,17.19l3.8,4L24.81,9.45,21,5.44Z"/><path class="cls-2" d="M70,90.35C76.92,83.86,83.67,77.51,90.56,71c.51,1.63,1,3.11,1.45,4.59q3,9.43,6,18.85c.16.53.31,1.06.43,1.59a3,3,0,0,1-3.8,3.65c-2-.61-3.9-1.42-5.85-2.16L71.29,90.88C70.92,90.74,70.57,90.58,70,90.35ZM76.84,89c3.17,1.19,6.08,2.32,9,3.36A1.66,1.66,0,0,0,87.19,92c1.36-1.19,2.68-2.42,4-3.71A1.67,1.67,0,0,0,91.67,87c-.88-3-1.87-6-2.87-9.19Z"/><path class="cls-2" d="M40,17.39,19.38,36.76l-5.32-5.62,20.6-19.38Z"/><path class="cls-2" d="M77.6,18a7.81,7.81,0,1,1-.11,15.61,7.71,7.71,0,0,1-7.75-7.79A7.8,7.8,0,0,1,77.6,18Zm0,10.94a3,3,0,0,0,3.1-3.14,3.13,3.13,0,1,0-3.1,3.14Z"/></g></g></g></svg>