<svg xmlns="http://www.w3.org/2000/svg" viewBox="0 0 61.85 93.55"><defs><style>.cls-1{opacity:0.6;}.cls-2{fill:#fff;}</style></defs><title>Ресурс 351</title><g id="Слой_2" data-name="Слой 2"><g id="Слой_1-2" data-name="Слой 1"><g class="cls-1"><path class="cls-2" d="M55.39,82.91H6.45a5.32,5.32,0,0,0,0,10.64H55.39a5.32,5.32,0,1,0,0-10.64Z"/><path class="cls-2" d="M5.62,78.41H28.67v-.13h4.5v.13H56.23s5.62-16.71,5.62-21.85c0-4.46-19.43-18.57-24.61-44a6.16,6.16,0,0,0,4.52-6.21c0-3.5-2.48-6.33-5.54-6.33h-3V60.33c-.51,1.26-1.33,2.09-2.25,2.09s-1.74-.81-2.25-2.05V0h-3c-3.07,0-5.54,2.83-5.54,6.33a6.16,6.16,0,0,0,4.51,6.21C19.43,38,0,52.1,0,56.56,0,61.7,5.62,78.41,5.62,78.41Z"/></g></g></g></svg>