<svg xmlns="http://www.w3.org/2000/svg" viewBox="0 0 110.25 103.5"><defs><style>.cls-1{opacity:0.6;}.cls-2{fill:#fff;}</style></defs><title>Ресурс 281</title><g id="Слой_2" data-name="Слой 2"><g id="Слой_1-2" data-name="Слой 1"><g class="cls-1"><path class="cls-2" d="M86.85,10.28c-2.47,5.23-6,7-11.42,6.88-21.65-.3-43.31-.13-65-.12-3.92,0-4,.09-4,4q0,23.84,0,47.68c0,3.74.25,4,4.13,4q41,0,82,0c3.95,0,4.19-.27,4.19-4.24,0-7.55.2-15.11-.08-22.65a13.32,13.32,0,0,1,3.13-9.56c1.07-1.29,2-2.69,3.38-4.58a25.1,25.1,0,0,1,.31,2.64q0,22.8,0,45.6c0,6.87-2.91,9.79-9.8,9.83-9.54.06-19.08,0-28.62,0H61.87c.12,4.43,2.29,6.93,6.75,8.19,1,.3,2.38.42,3,1.13a3.41,3.41,0,0,1,.34,3,3.26,3.26,0,0,1-2.56,1.3q-17.73.13-35.46,0a3.5,3.5,0,0,1-2.68-1.78c-.55-1.59,0-2.86,2.12-3.38,5.74-1.39,7.73-3.58,8-8.47h-3.2c-9,0-18.08,0-27.12,0a33,33,0,0,1-4.44-.32C2.42,88.89,0,86.31,0,82q0-32.48.11-65c0-3.92,3.35-6.71,7.93-6.77,6.06-.07,12.12,0,18.18,0H86.85Zm-35.38,67a3.86,3.86,0,0,0-3.81,4.07,4,4,0,0,0,3.9,3.77c2,.19,4-2,4-4A3.94,3.94,0,0,0,51.47,77.28Z"/><path class="cls-2" d="M61.39,61c.41-.65.54-1.07.83-1.27,3.26-2.29,3.7-5.51,3.48-9.2-.42-6.64,2.79-10.68,9-11.89.87-.17,1.75-.32,2.59-.47l2.53-10.35L93,36.88l-8.83,6c2.88,7.66-1,13.11-7.16,17.26C72.29,63.37,67,64.29,61.39,61Z"/><path class="cls-2" d="M106.23,0c3.33,0,4.14,1.52,4,3.31a16.31,16.31,0,0,1-1.33,6c-4,7.92-8.22,15.75-12.53,23.52a3.36,3.36,0,0,1-3.13,1A90.28,90.28,0,0,1,83.38,27a3.34,3.34,0,0,1-.22-3.26C89,16.86,94.81,10,100.91,3.42,102.5,1.7,105,.79,106.23,0Z"/><path class="cls-2" d="M15.69,49c0-3.08.06-6.17,0-9.25-.05-2,.73-3,2.77-3,3.87,0,7.75,0,11.62,0,2.07,0,2.76,1,2.74,2.95-.07,6.06-.06,12.13,0,18.19,0,1.94-.59,3-2.73,2.93-3.87-.09-7.75-.08-11.63,0-2.09,0-2.8-.94-2.76-2.91C15.75,54.91,15.69,51.93,15.69,49Z"/><rect class="cls-2" x="33.98" y="36.62" width="25.82" height="3.71" rx="1.48" ry="1.48"/><rect class="cls-2" x="16.02" y="28.22" width="43.78" height="6.91" rx="2.5" ry="2.5"/><rect class="cls-2" x="33.98" y="41.76" width="25.82" height="3.71" rx="1.48" ry="1.48"/><rect class="cls-2" x="33.98" y="46.9" width="25.82" height="3.71" rx="1.48" ry="1.48"/><rect class="cls-2" x="33.98" y="52.04" width="25.82" height="3.71" rx="1.48" ry="1.48"/><rect class="cls-2" x="33.98" y="57.18" width="25.82" height="3.71" rx="1.48" ry="1.48"/></g></g></g></svg>