<svg xmlns="http://www.w3.org/2000/svg" viewBox="0 0 80.53 109.19"><defs><style>.cls-1{fill:#fff;fill-rule:evenodd;opacity:0.6;}</style></defs><title>Ресурс 361</title><g id="Слой_2" data-name="Слой 2"><g id="Слой_1-2" data-name="Слой 1"><path class="cls-1" d="M45.9,102.67l-2.79-2.79-3,9.31-3.54-9.31-2.43,4.84L30.63,96h19.2l-3.93,6.7ZM15.65,101S0,90.13,0,66.84C0,53.22,13.79,50.06,13.79,50.06a142.85,142.85,0,0,0,7.64,36C14.54,94.24,15.65,101,15.65,101ZM38.38,4.37V1.67A1.68,1.68,0,0,1,40.06,0h0a1.67,1.67,0,0,1,1.67,1.67V4.08c3.8,2.77,14.14,11.61,18.8,28.62H20C24.46,16.16,34.28,7.42,38.38,4.37Zm1.86,38.3a8.58,8.58,0,1,0,8.57,8.58,8.57,8.57,0,0,0-8.57-8.58ZM26.85,92.77S17.6,63.12,17.6,50.82a70.57,70.57,0,0,1,1.59-14.94h42.1a68.61,68.61,0,0,1,1.6,14.93c0,12.12-9.2,41.95-9.2,41.95Zm38,8.19S66,94.24,59.09,86a143,143,0,0,0,7.64-36s13.79,3.16,13.8,16.78C80.52,90.13,64.87,101,64.87,101Z"/></g></g></svg>