<svg xmlns="http://www.w3.org/2000/svg" viewBox="0 0 110.22 119.03"><defs><style>.cls-1{fill:#fff;opacity:0.6;}</style></defs><title>Ресурс 271</title><g id="Слой_2" data-name="Слой 2"><g id="Слой_1-2" data-name="Слой 1"><polygon class="cls-1" points="102.56 99.73 110.22 99.73 110.22 30.18 76.76 30.18 76.76 68.96 76.76 72.17 73.36 72.17 36.74 72.17 36.74 99.73 84.64 99.73 84.64 119.03 102.56 99.73 102.56 99.73"/><path class="cls-1" d="M12.21,28.85A6.22,6.22,0,1,1,6,35.07a6.22,6.22,0,0,1,6.23-6.22Zm16.29,0a6.22,6.22,0,1,1-6.23,6.22,6.22,6.22,0,0,1,6.23-6.22Zm16.29-.16a8,8,0,0,1,4,1.49A6.63,6.63,0,0,1,51,35a6.23,6.23,0,1,1-12.45,0,6.59,6.59,0,0,1,2.19-4.79,8.08,8.08,0,0,1,4-1.49Zm16.29,0a8,8,0,0,1,4,1.49A6.63,6.63,0,0,1,67.3,35a6.23,6.23,0,1,1-12.45,0A6.59,6.59,0,0,1,57,30.18a8.08,8.08,0,0,1,4-1.49ZM0,68.89H7.6l18,19.68V68.89H73.48V0H0V68.89Z"/></g></g></svg>