<svg xmlns="http://www.w3.org/2000/svg" viewBox="0 0 87.67 89"><defs><style>.cls-1{fill:#fff;opacity:0.6;}</style></defs><title>Ресурс 371</title><g id="Слой_2" data-name="Слой 2"><g id="Слой_1-2" data-name="Слой 1"><path class="cls-1" d="M80.22,48.06H73V74.82H65.89V48.06h-7V44.71H80.22v3.35ZM53.46,58.89H46.31V74.82h-7V58.89H32.13v-3.8H53.46v3.8ZM28.55,41.06H21.48V74.82H14.29V41.06H7.19V37.41H28.55v3.65ZM14.29,14.3h7.19V30.22H14.29V14.3Zm25,0h7V48.06h-7V14.3ZM66,14.3h7V37.41H66V14.3ZM80.37,0H7.3A7.33,7.33,0,0,0,0,7.29V81.67A7.33,7.33,0,0,0,7.3,89H80.37a7.33,7.33,0,0,0,7.3-7.33V7.29A7.33,7.33,0,0,0,80.37,0Z"/></g></g></svg>