<svg xmlns="http://www.w3.org/2000/svg" viewBox="0 0 67.52 42.17"><defs><style>.cls-1{opacity:0.3;}.cls-2{fill:#fff;fill-rule:evenodd;opacity:0.7;}</style></defs><title>Ресурс 31</title><g id="Слой_2" data-name="Слой 2"><g id="Слой_1-2" data-name="Слой 1"><g class="cls-1"><path class="cls-2" d="M8.46,23.18H19c2.35,0,6.37,1,6.37,5.48,0,2.35-1.85,5.08-4.16,5.08H8.46ZM42.24,2.1H61.16V8.39H42.24ZM58.63,23.18H44.76a7,7,0,0,1,13.87,0ZM44.3,27.38H67.52v-1c0-8.71-6.29-15.83-15.79-15.83S35.91,17.64,35.91,26.35s6.26,15.82,15.82,15.82S65.78,36.73,67.2,29.48H58.63c-.74,3.73-3,6.36-6.9,6.36S44.66,32.11,44.3,27.38Zm-10.49,2.1a10.62,10.62,0,0,0-7.18-9.92,10.71,10.71,0,0,0,5-9A10.55,10.55,0,0,0,21.16,0H0V42.17H21.16A12.72,12.72,0,0,0,33.81,29.48ZM19,16.93H8.46V8.39H19a4.27,4.27,0,1,1,0,8.54Z"/></g></g></g></svg>