<svg xmlns="http://www.w3.org/2000/svg" viewBox="0 0 45.02 45.01"><defs><style>.cls-1{opacity:0.3;}.cls-2{fill:#fff;fill-rule:evenodd;opacity:0.7;}</style></defs><title>Ресурс 51</title><g id="Слой_2" data-name="Слой 2"><g id="Слой_1-2" data-name="Слой 1"><g class="cls-1"><path class="cls-2" d="M11,22.49A11.5,11.5,0,1,1,22.49,34,11.51,11.51,0,0,1,11,22.49ZM34.38,0H10.64A10.67,10.67,0,0,0,0,10.64V34.38A10.68,10.68,0,0,0,10.64,45H34.38A10.67,10.67,0,0,0,45,34.38V10.64A10.65,10.65,0,0,0,34.38,0ZM10.64,2.66H34.38a8,8,0,0,1,8,8V34.38a8,8,0,0,1-8,8H10.64a8,8,0,0,1-8-8V10.64A8,8,0,0,1,10.64,2.66ZM36.74,6a2.34,2.34,0,1,0,2.33,2.34A2.34,2.34,0,0,0,36.74,6ZM37,22.49A14.52,14.52,0,1,0,22.49,37,14.52,14.52,0,0,0,37,22.49Z"/></g></g></g></svg>