<svg xmlns="http://www.w3.org/2000/svg" viewBox="0 0 95.09 95.15"><defs><style>.cls-1{opacity:0.6;}.cls-2{fill:#fff;}</style></defs><title>Asset 1</title><g id="Layer_2" data-name="Layer 2"><g id="Слой_1" data-name="Слой 1"><g class="cls-1"><path class="cls-2" d="M29.46,31l6.72-8c3.59,2.41,7.12,4.85,10.71,7.19,12.22,8,25.27,14,39.65,16.89C91,48,94.2,46.35,95,42.72c.71-3.36-1.46-6.22-5.82-7.14C72.33,32.05,57.85,23.72,43.8,13.75l6.72-8.26L17.87,0,29.46,31Z"/><path class="cls-2" d="M0,62.41C0,70.68,0,79,0,87.24,0,93,2.09,95,7.82,95.09c1.23,0,2.47.06,3.7,0,4-.26,6.26-2.38,6.28-6.35q.12-26.31,0-52.63c0-4-2.33-6.1-6.28-6.35-1.47-.09-3-.06-4.44,0-4.79.13-7,2.29-7,7.11C0,45.36,0,53.88,0,62.41Z"/><path class="cls-2" d="M23.79,68.55c0,6.43,0,12.85,0,19.27,0,5.05,2.2,7.17,7.25,7.27,1.48,0,3,.08,4.44,0,3.74-.28,6-2.4,6.06-6.17q.16-20.56,0-41.12c0-3.75-2.35-5.86-6.1-6.13-1.59-.11-3.21-.08-4.81,0-4.57.16-6.78,2.33-6.84,6.94-.08,6.67,0,13.34,0,20Z"/><path class="cls-2" d="M65.39,74.13c0-4.57.07-9.14,0-13.7s-2.28-6.77-6.84-6.93c-1.6,0-3.22-.08-4.81,0-3.75.26-6,2.38-6.1,6.12q-.2,14.63,0,29.25c0,3.76,2.33,5.89,6.06,6.15a42.63,42.63,0,0,0,5.18,0c4.15-.2,6.39-2.36,6.49-6.51.12-4.81,0-9.63,0-14.44Z"/><path class="cls-2" d="M89.16,80c0-2.71.1-5.43,0-8.14-.17-4.13-2.37-6.27-6.53-6.46-1.6-.08-3.21-.08-4.81,0-4,.21-6.29,2.29-6.4,6.2-.15,5.79-.16,11.59,0,17.38.1,3.73,2.37,5.84,6.13,6.08a42.67,42.67,0,0,0,5.54,0c3.72-.26,5.86-2.41,6-6.17.14-2.95,0-5.92,0-8.88Z"/></g></g></g></svg>