<svg xmlns="http://www.w3.org/2000/svg" viewBox="0 0 45.01 45.01"><defs><style>.cls-1{opacity:0.3;}.cls-2{fill:#fff;fill-rule:evenodd;opacity:0.7;}</style></defs><title>Ресурс 21</title><g id="Слой_2" data-name="Слой 2"><g id="Слой_1-2" data-name="Слой 1"><g class="cls-1"><path class="cls-2" d="M33.46,0H11.56A11.55,11.55,0,0,0,0,11.56v21.9A11.55,11.55,0,0,0,11.56,45h21.9A11.55,11.55,0,0,0,45,33.46V11.56A11.55,11.55,0,0,0,33.46,0ZM29.53,20l-.21,2.49H24.63V38.32H18.3V22.5H15.11V16.16h3.16V13.32c0-2.61,1.22-6.63,6.66-6.63h4.89v5.43H26.27a1.32,1.32,0,0,0-1.39,1.5v2.54h5Z"/></g></g></g></svg>