<svg xmlns="http://www.w3.org/2000/svg" viewBox="0 0 64.26 43.69"><defs><style>.cls-1{opacity:0.3;}.cls-2{fill:#fff;opacity:0.7;}</style></defs><title>Ресурс 41</title><g id="Слой_2" data-name="Слой 2"><g id="Слой_1-2" data-name="Слой 1"><g class="cls-1"><polygon class="cls-2" points="64.26 40.78 64.26 5.22 44.58 20.27 64.13 41.31 64.26 40.78"/><path class="cls-2" d="M.8,1.08,32.13,24.92,63.39,1a3.5,3.5,0,0,0-2.47-1H3.34A3.49,3.49,0,0,0,.8,1.08Z"/><polygon class="cls-2" points="0 5.34 0 40.78 0.15 41.42 19.73 20.36 0 5.34"/><polygon class="cls-2" points="62.35 43.38 42.41 21.93 33.31 28.9 32.13 29.3 30.96 28.9 21.89 22.01 1.98 43.43 3.33 43.69 60.92 43.69 62.35 43.38"/></g></g></g></svg>