<svg xmlns="http://www.w3.org/2000/svg" viewBox="0 0 354 84.33"><defs><style>.cls-1{opacity:0.5;}.cls-2{fill:#fff;}</style></defs><title>Ресурс 61</title><g id="Слой_2" data-name="Слой 2"><g id="Слой_1-2" data-name="Слой 1"><g class="cls-1"><path class="cls-2" d="M225.7,3.49c.91.31.86,1.26.78,2.12a48,48,0,0,1-.77,5.88c-.36,1.58-1.15,3.06-1.67,4.61-.32,1-.46,2-.74,2.94-.15.49-.43.94-.62,1.42-.29.7-.6,1.41-.82,2.14-.48,1.56-.9,3.13-1.38,4.7a12.63,12.63,0,0,1-1.31,3.75c-.95,1.31-1,2.89-1.77,4.23a6,6,0,0,0-.28,2.28c1,0,1.91,0,2.8,0a4.14,4.14,0,0,1,3.06.74,5.85,5.85,0,0,1,.68,3.3,2.23,2.23,0,0,0-.33.72,3.35,3.35,0,0,1-2.87,2.48,1.86,1.86,0,0,1-1.94-1.12c-.39-1.06.49-1.6,1.23-2A2.17,2.17,0,0,0,221,39a5,5,0,0,0-5.37,1.89,11.06,11.06,0,0,0-1,2.86,7.14,7.14,0,0,1-.51.94c-.09.17-.27.33-.27.5a7.73,7.73,0,0,1-1.15,3.16,19.87,19.87,0,0,0-.8,2.79A26.9,26.9,0,0,1,210.89,54a1.44,1.44,0,0,0,1,2,2,2,0,0,0,.42,0c1.35,0,2.68-.86,4.06,0,.2.12.63-.19,1-.26a2.52,2.52,0,0,1,.89-.12,21.46,21.46,0,0,0,2.72.46c8.51.06,17,.06,25.52.08h3.47l0,.37a8.83,8.83,0,0,1-1,.11c-3.24,0-6.49,0-9.73.09a7.21,7.21,0,0,0-3.36.44c-.35.19-1-.14-1.47-.21a3.71,3.71,0,0,0-1.5-.12,11.27,11.27,0,0,1-6.68,0,1.55,1.55,0,0,0-.71,0,13.09,13.09,0,0,1-2.18.42c-3.73,0-7.47,0-11.2,0-2.09,0-3,.8-3.4,2.86a19.87,19.87,0,0,1-1.15,3.09c-.23.61-.48,1.21-.71,1.83-.47,1.27-.85,2.59-1.41,3.82-.49,1.07-1.21,2-1.77,3.07a12.14,12.14,0,0,0-.79,1.94,9.59,9.59,0,0,1-2.9,4.46,2,2,0,0,1-1.73,0,1.3,1.3,0,0,1-.5-1.78c.37-.84.75-1.67,1.08-2.53a16.49,16.49,0,0,1,1.42-3.71c1.11-1.58,1.53-3.44,2.47-5.08.66-1.16.81-2.63,1.47-3.8.45-.78.25-1.84,1.2-2.42.27-.17.15-1,.24-1.69-1.89,0-3.65,0-5.41,0a55.31,55.31,0,0,0-8,.18c-4.53.73-9.12,0-13.6.68-3.29.49-6.57.25-9.84.53a53.82,53.82,0,0,0-5.53.66A18.18,18.18,0,0,0,160,60.49a1.16,1.16,0,0,1-.4.09,2.92,2.92,0,0,0-2.76,1.69,23.43,23.43,0,0,0,1.71,2.53,13.23,13.23,0,0,0,2.33,2.08,33.11,33.11,0,0,0,2.89,1.64l-1.15-3.07.43-.2a17.18,17.18,0,0,0,.85,1.51c.32.45.81.69.94,1.37a9,9,0,0,0,1.07,2.24l.55,1.06c-1,1.23-1.95,1.31-3.44.45-1.32-.76-2.8-1.27-4-2.12a42.74,42.74,0,0,1-3.47-3,6.34,6.34,0,0,1-2.09-5,3.22,3.22,0,0,1,2.28-3.3c1.26-.53,2.48-1.15,3.72-1.73a.64.64,0,0,1,.2,0c2-.25,4.08-.53,6.13-.71,1.18-.11,2.37,0,3.55-.08a7.5,7.5,0,0,0,1.39-.3,1.33,1.33,0,0,1,.5-.11c2.73.39,5.44-.22,8.17-.1s5.58,0,8.37,0h8.37c2.78,0,5.58.08,8.36,0,.63,0,1.28.65,1.89,0,.1-.11.32-.17.36-.29a44.84,44.84,0,0,1,1.45-4.47c.61-1.34.57-2.94,1.79-4.06.33-.31.27-1.22.15-1.81a3.82,3.82,0,0,1,.89-2.9,8.37,8.37,0,0,0,1.13-2.35,38.66,38.66,0,0,1,1.63-4.22,2.54,2.54,0,0,0,.12-.61,2.88,2.88,0,0,1,.68-1.84c.55-.58.53-1.69.81-2.56.36-1.13.78-2.25,1.15-3.38.26-.8.46-1.61.74-2.4.34-1,.74-2,1.11-3,.08-.23.06-.49.16-.71a11.84,11.84,0,0,1,.59-1,2.17,2.17,0,0,0,.19-.33c.62-1.68,1.25-3.36,1.84-5a11.87,11.87,0,0,1,.72-2.39c.62-1,.33-2.21,1.29-3.1.53-.5.55-1.54.78-2.34a20.44,20.44,0,0,1,.7-2.38C224.74,3.92,225.24,3.78,225.7,3.49Z"/><path class="cls-2" d="M136.93,42.66l.22,2c.21,0,.43.07.53,0,1-.85,2.3-1.14,3.24-2.15a6.37,6.37,0,0,0,1.43-2.94c.25-.89.68-1.73,1-2.61s.52-1.61.72-2.42c.29-1.15.51-2.32.76-3.48a7.56,7.56,0,0,1,1.26-3.52.72.72,0,0,0,.1-.29c.25-1.36.43-2.74.75-4.08.28-1.15.73-2.26,1.09-3.39a1.45,1.45,0,0,0,.11-.5,11.56,11.56,0,0,1,1.18-4.38,3,3,0,0,0,.08-.61,11.23,11.23,0,0,1,.79-3.31,25.13,25.13,0,0,0,1.43-3.87c.57-1.39,1.63-2.6,2.12-4s2-1.71,2.61-2.93c.1-.19.89-.2,1.25,0s.31.65.5,1.1c-1.64.16-2,1.39-2.72,2.35-1.08,1.38-1,3.1-1.87,4.52a12.86,12.86,0,0,0-.78,2.93c-.29,1-.66,2-1,2.92a3,3,0,0,0-.13.39c-.26,1.36-.47,2.74-.81,4.09a23,23,0,0,1-.94,2.59c-.12.29-.4.57-.42.86A14.39,14.39,0,0,1,148.3,26c-.37,1-.48,2.12-.77,3.16s-.82,2.32-1.12,3.5c-.5,1.94-1.73,3.66-1.67,5.78a4.84,4.84,0,0,1-.59,1.79c-.55,1.37-1.15,2.72-1.69,4.1-.27.69-.38,1.43-.66,2.11-.72,1.76-1.46,3.52-2.27,5.24a32.07,32.07,0,0,1-1.6,2.86c-1,1.73-2,3.49-3.11,5.14-.71,1.07-1.75,1.91-2.48,3a17.51,17.51,0,0,1-2.58,3.43c-.8.7-1.53,1.48-2.29,2.22-.52.52-1.07,1-1.55,1.56-.08.09.07.41.15.61,0,0,.2,0,.3,0,3.34.21,6.69.34,10,.65a8.76,8.76,0,0,1,4.06,1.28c.45.29.6,2.58.22,3.18a14.2,14.2,0,0,1-1.22,1.83,3.39,3.39,0,0,1-1.2.79c-.7.3-1.43.52-2.15.76s-1.39.42-2.07.68c-.88.34-1.76.7-2.61,1.11-1.18.57-3.75-.29-4.29-1.46-.41-.89.6-2.67,1.71-3,1.49-.45,3-.82,4.47-1.36a16.5,16.5,0,0,0,2.42-1.35l-.15-.39c-.61,0-1.22-.07-1.83-.12s-1.33.19-1.74-.59c-.06-.11-.38-.12-.58-.12-2.72,0-5.44-.13-8.16,0a4.55,4.55,0,0,0-2,1c-1,.71-2,1.5-3,2.25-.84.64-1.65,1.3-2.52,1.9a7.34,7.34,0,0,1-1.44.69c-1.24.5-2.5,1-3.74,1.46a31.28,31.28,0,0,0-4.72,2c-1.26.77-2.69.86-3.91,1.44-3.22,1.54-6.56,1.19-9.9,1.08-1.51,0-2.59-1.15-3.55-2.13-.74-.76-.12-2.8.92-3.68a2.74,2.74,0,0,1,.18.66,1.13,1.13,0,0,0,1.14,1.15,39.41,39.41,0,0,0,5.75,0,20.66,20.66,0,0,0,3.75-1.07c.73-.22,1.47-.46,2.21-.67.9-.24,1.82-.41,2.7-.7a22.55,22.55,0,0,0,2.13-.94l2.42-1.09,2.45-1.13,1.83-.79c.57-.25,1.16-.49,1.72-.76.09,0,.19-.31.16-.34s-.37-.34-.56-.35c-1.22,0-2.44,0-3.66-.07-.45,0-.9-.08-1.39-.13.08-.19.09-.25.11-.25l5.24-.82a19.23,19.23,0,0,0,4-.71,3.75,3.75,0,0,0,2.38-1.72c.19-.41.84-.62,1.28-.91A18,18,0,0,0,127.74,64c1-1.26,2.44-2.19,3.51-3.42s2.13-2.82,3.18-4.24c.81-1.09,1.69-2.15,2.42-3.29a21.09,21.09,0,0,0,1.41-2.86c.61-1.35,1.24-2.71,1.75-4.1a7.29,7.29,0,0,0,.18-1.87c-1.14,1.24-2.12,2.39-3.19,3.43a1.64,1.64,0,0,1-2.43-.27c-.51-.53-1.13-1.12-.49-2.14.43-.69.68-1.47,1.49-1.85C136,43.2,136.36,43,136.93,42.66Z"/><path class="cls-2" d="M301.61,70.36a11.57,11.57,0,0,0,1.17.11c2.45,0,4.9.14,7.32,0a32.75,32.75,0,0,0,4.78-1.12,5.57,5.57,0,0,0,.82-.1,7.74,7.74,0,0,0,1-.53,3.65,3.65,0,0,1,.53-.25c1.63-.61,3.28-1.19,4.9-1.83s3.15-1.26,4.65-2c1.33-.69,2.54-1.6,3.81-2.4.69-.43,1.43-.78,2.09-1.25s1.48-1.13,2.21-1.71a38.12,38.12,0,0,0,3.8-3.11,37.43,37.43,0,0,0,4.14-5,18.71,18.71,0,0,0,1.55-3.79c.05-.11.14-.2.44-.27a7.48,7.48,0,0,1,0,2.37,31.63,31.63,0,0,1-1.87,3.84,10,10,0,0,1-1,1.45c-1.2,1.52-2.37,3.08-3.67,4.53a29.58,29.58,0,0,1-3.3,3.13,64.64,64.64,0,0,1-5.33,4c-1.28.84-2.83,1.25-4.09,2.11a8.06,8.06,0,0,1-1.89,1c-.78.27-1.51.67-2.26,1-.93.41-1.86.83-2.81,1.19a19.3,19.3,0,0,1-2.09.63c-1.28.33-2.58.62-3.86,1a27.29,27.29,0,0,1-8.4.56,26.87,26.87,0,0,1-4.89-.66,8.83,8.83,0,0,1-2.51-1.37,31.77,31.77,0,0,1-2.79-2,2.5,2.5,0,0,1-.35-3.21,2.72,2.72,0,0,1,3.28-.27,1.43,1.43,0,0,0,.95.26c1.3-.18,2.64.2,3.92-.57.85-.51,2-.46,3-.84a10.75,10.75,0,0,0,2.61-1.45c1.47-1.12,3.18-2,4.24-3.59a12.27,12.27,0,0,1,1.73-2.39c.65-.59.68-1.3,1-2a5.32,5.32,0,0,0-.06-4.5,2.39,2.39,0,0,1-.13-.82,1.4,1.4,0,0,0-.58-1.28c-.49-.35-.55-1.26-.93-1.83a16.42,16.42,0,0,0-1.88-2.35,3.65,3.65,0,0,0-1.41-.69,10,10,0,0,0-2.77-.76c-1.45,0-3-.34-4.36.51-.28.18-.74.06-1.09.08-.45-1.39,0-1.91,1.05-2.57a13.66,13.66,0,0,1,2.59-1,3.17,3.17,0,0,1,2.86,0,1.06,1.06,0,0,0,.59.17c1.61-.17,2.58,1.09,3.8,1.74a7.88,7.88,0,0,1,2.26,1.79A18.63,18.63,0,0,1,316.05,47a15.64,15.64,0,0,1,1.37,4.45,9.62,9.62,0,0,1,.39,3.42,15.22,15.22,0,0,1-1,3,7.92,7.92,0,0,1-.76,1.58A20.77,20.77,0,0,1,314,62.42a28.44,28.44,0,0,1-3.24,3,14.29,14.29,0,0,1-2.69,1.72c-1.12.55-2.35.86-3.48,1.39s-2,1.09-2.95,1.64Z"/><path class="cls-2" d="M1.43,46.21a.94.94,0,0,0-.41,0,9,9,0,0,0-.78.47A4,4,0,0,1,0,45.64c0-.59-.21-1.3.58-1.64.07,0,.12-.16.14-.26.24-1.26.42-2.54.73-3.78.27-1.08.69-2.13,1-3.19a1.45,1.45,0,0,0,.11-.29c.25-1.36.45-2.74.78-4.08.24-1,.67-1.92,1-2.89a12.21,12.21,0,0,0,.2-1.21c.11-.53-.18-1.23.63-1.5A10.55,10.55,0,0,0,5,25.73c-.05-.23-.17-.54-.08-.69A13.15,13.15,0,0,0,6,23.56a16.39,16.39,0,0,0,.66-2.33c.46-1.68.89-3.37,1.38-5,.37-1.26.77-2.52,1.26-3.75a10.63,10.63,0,0,1,1.11-1.77c.81-.22,1.48.21,1.51,1.26a22.44,22.44,0,0,1-.05,3.76c-.19,1.28-.72,2.5-1,3.77-.29,1.12-.51,2.26-.8,3.59,1.67-.22,3.28.28,4.81-.54a2.8,2.8,0,0,1,1-.14,53.65,53.65,0,0,0,7.42-.84c1.73-.43,3.47-.11,5.1-.55,2-.56,4.17-.15,6.12-.69,1.52-.42,3-.15,4.47-.55,1.93-.54,4,0,5.78-.72,2.77-1.05,5.53-.35,8.26-.72a2.61,2.61,0,0,0,1.45-.85A17.27,17.27,0,0,1,56.26,15a3,3,0,0,1,2.23-.25c.68.17.87,1.64.53,2.28s-.71,1.46-1.05,2.2a10.58,10.58,0,0,1-.76,1.59,6.21,6.21,0,0,0-1.18,3c-.15,1.37-2.41,2.46-3.59,1.79-.1-.06-.24-.18-.25-.28a7.42,7.42,0,0,1,.3-4.07,4.92,4.92,0,0,0-2.92,0c-.9.11-1.79.4-2.69.49a70.41,70.41,0,0,0-8,.79c-1.5.33-3.12,0-4.41.63-1.84.85-3.77.27-5.51.82-1.9.6-3.78.29-5.65.51s-3.88.45-5.82.7c-1.28.17-2.56.38-3.85.57s-2.77.37-4.14.64a1.37,1.37,0,0,0-.86.77c-.32,1-.47,2.1-.76,3.14s-.75,2.33-1.12,3.5c-.23.73-.46,1.47-.65,2.21-.26,1-.43,2.05-.75,3a12.08,12.08,0,0,1-.92,1.74c-.39.75-.73,1.53-1.16,2.25-.31.51-.8.93-1.1,1.45a15.93,15.93,0,0,0-.79,1.79Z"/><path class="cls-2" d="M92.52,48.2c-.09.56-.3,1-.17,1.25a1.21,1.21,0,0,0,.93.42c2.76,0,5.52.09,8.27,0a29.52,29.52,0,0,0,4.77-.62A33.36,33.36,0,0,0,110.83,48,29.3,29.3,0,0,0,115,46.18a3.77,3.77,0,0,0,1.45-4,4.63,4.63,0,0,0-2.57-2.64c-.69-.26-1.3-.74-2-1a11.1,11.1,0,0,0-2.28-.76c-1.56-.31-3.15-.51-4.72-.79a6.21,6.21,0,0,1-.94-.45,2.25,2.25,0,0,0-.84-.28c-2.93,0-5.86,0-8.79,0-.21,0-.53,0-.6.09-.66,1-1.69.57-2.56.68-2.11.25-4.24.39-6.33.75a44.36,44.36,0,0,0-4.76,1.23c-1.34.38-2.66.83-4,1.25a7.85,7.85,0,0,0-1.84.64c-1.08.69-2.06,1.54-3.12,2.27a2.4,2.4,0,0,1-.93.2c0-.32-.27-.77-.13-.92,1-1.16,1.92-2.4,3.49-3,1.25-.44,2.4-1.17,3.62-1.69.76-.33,1.6-.49,2.38-.77a3.16,3.16,0,0,0,.76-.53c.1-.07.18-.21.29-.24,1.08-.24,2.18-.44,3.26-.7,1.56-.36,3.12-.76,4.68-1.15a2.85,2.85,0,0,1,.41,0c3.38-.22,6.75-.44,10.12-.63a15.93,15.93,0,0,1,3.24,0c1.58.24,3.14.68,4.71,1l.51.09c1.53.46,3.07.9,4.59,1.41.32.11.54.52.83.76,1,.82,2.16,1.28,3.12,2.2a6.17,6.17,0,0,1,1.84,4.58c.12,2.42-1.18,4.07-2.83,5.37a28.93,28.93,0,0,1-4.93,2.77,9.19,9.19,0,0,1-2,.62c-1.2.27-2.43.41-3.61.75-2.55.74-5.18.58-7.78.73a24.68,24.68,0,0,1-2.51.4,25.68,25.68,0,0,1-5.83-.67c-1.19-.36-2.82,0-3.59-1.62-.54-1.12-.59-2,.26-2.84A3.69,3.69,0,0,1,88.2,48c1.14.11,2.3,0,3.45,0A5.4,5.4,0,0,1,92.52,48.2Z"/><path class="cls-2" d="M79.58,26.23c-.18,1.7-.36,3.29-.51,4.88a3.89,3.89,0,0,1-1.24,2.67A12.16,12.16,0,0,0,76.33,36c-.06.09-.22.11-.5.24V25.9a9.33,9.33,0,0,1-2.39-1c-.39-.32-.37-1.12-.53-1.69l3.94-.92a5.23,5.23,0,0,1,1.42-2.6c.44-.35.55-1.15.77-1.76.53-1.45.78-1.59,2.48-1.35.53,2-.5,3.69-.92,5.58a2,2,0,0,0,.59.25c2.64.2,5.28.5,7.93.53q9,.12,18,0a51,51,0,0,0,7.09-.63c.62-.09,1.2-.92,1.62-1.53a12.67,12.67,0,0,0,1-2.22c.67.47,1.3.91,1.92,1.36a2.8,2.8,0,0,1,.45,2.41,15,15,0,0,0-1.28,1.93,3.87,3.87,0,0,1-4,2.05,1,1,0,0,1-.59-.45,1.35,1.35,0,0,0-2-.54,3.2,3.2,0,0,1-.92.38c-3.72.82-7.5.68-11.28.67-6,0-12.06,0-18.09-.08Z"/><path class="cls-2" d="M329,22.14a31.75,31.75,0,0,1,3.71.89,25.23,25.23,0,0,1,3,1.54l-.08.34a10.94,10.94,0,0,1-1.62,0,16.08,16.08,0,0,0-1.62-.42,37.82,37.82,0,0,0-4.39,0c-2.08.14-4.17.34-6.24.66a16,16,0,0,0-2.64,1,4.34,4.34,0,0,1-1,.16,4.69,4.69,0,0,0-2.88,1.23,1.81,1.81,0,0,1-.57.24c-1.27.47-2.55.92-3.82,1.4-.9.34-1.77.73-2.66,1.1s-1.84.75-2.78,1.09c-.15.06-.36-.05-.54-.08.08-.29.07-.72.27-.86,1.24-.9,2.57-1.69,3.8-2.61a10.72,10.72,0,0,1,3.33-1.57,27.9,27.9,0,0,0,3.45-1.65,1.89,1.89,0,0,1,.41-.1c1.16-.24,2.61-.12,3.4-.79,1.24-1.06,2.85-.23,4-1.23.18-.17.6-.07.92-.08l2.34-.13c-1.43-1.1-1.87-2.44-1.36-3.68.38-.94.82-2.33,2.47-2.11l.23-1.18c-1.67,0-3.27-.43-4.41,1.15-.06.08-.21.12-.22.19-.09,1.46-1.12,1.08-2.1,1.06,0-.38-.09-.75-.09-1.12,0-1.67,0-3.34,0-5a15.69,15.69,0,0,1,1.37-5.8c.22-.59.89-1,1.33-1.55.66-.76,1.27-1.56,1.95-2.28a11.57,11.57,0,0,1,1.4-1.11c.32-.24.64-.45,1-.69.41.48.12,1.22-.54,1.91a13.92,13.92,0,0,0-1.85,2.53c-.65,1.12-1.16,2.33-1.73,3.5a.76.76,0,0,0-.09.18,59.25,59.25,0,0,0-.42,6.46c.33-.21.65-.44,1-.65a1.14,1.14,0,0,1,.42-.22,15.21,15.21,0,0,1,3.64.08,2.88,2.88,0,0,1,1.7,1.68c.72,2-.07,4-.7,5.95C329.62,21.72,329.33,21.85,329,22.14Z"/><path class="cls-2" d="M56.67,40.09c.36,1.6-.57,2.54-1.7,3.4-.57.44-1.09.92-1.63,1.39a12,12,0,0,1-4.09,2.67c-1.12.36-2.09,1.16-3.2,1.58a23.13,23.13,0,0,1-3.33.82c-.54.12-1.22-.13-1.49.63,0,.07-.18.11-.27.13-1.23.24-2.46.46-3.67.73-1.51.35-3,.8-4.51,1.08a10.58,10.58,0,0,1-2.81.1A11.92,11.92,0,0,1,27.12,52a1.43,1.43,0,0,1-.77-1c-.26-2,.4-2.73,2.41-2.94,1.72-.17,3.43-.46,5.14-.71,1.15-.17,2.29-.35,3.43-.57.34-.07.67-.37,1-.37a6,6,0,0,1,1.84.22c.55.17.87.66,1.67.35a34.34,34.34,0,0,1,3.86-.85A15.29,15.29,0,0,0,48,45.23c.81-.34,1.58-.81,2.41-1.07a15.21,15.21,0,0,0,4.28-2.28,5.07,5.07,0,0,0,1.44-1.59c.08-.12.36-.12.55-.17Z"/><path class="cls-2" d="M161.93,36.14a14,14,0,0,0-1.66.93,26.25,26.25,0,0,0-3.07,2.46A13.69,13.69,0,0,0,155.52,42c-.37.59-.71,1.2-1,1.82a9.05,9.05,0,0,0-1,2.12c-.2.93-.76,1-1.45.89a1.29,1.29,0,0,1-1.16-1.29c-.13-1.39.75-2.32,1.48-3.32s1.51-2,2.3-2.93a8.42,8.42,0,0,0,1.53-4c.3-1.59.81-3.14,1.25-4.69.39-1.34.83-2.66,1.22-4a11.57,11.57,0,0,1,.68-2.41,17,17,0,0,0,1.49-5.35,35.84,35.84,0,0,1,1.21-4c.4-1.24.81-2.49,1.23-3.73A15.24,15.24,0,0,1,164,9.43c.06-.12.44-.08.66-.11-.09.63-.16,1.27-.29,1.9,0,.14-.37.21-.41.36a17.73,17.73,0,0,0-.64,2.2c-.27,1.37-.43,2.76-.73,4.12-.37,1.62-.8,3.24-1.26,4.84a17.91,17.91,0,0,1-1.29,3.8,19.79,19.79,0,0,0-1.42,4.69,45.71,45.71,0,0,1-1.3,4.51c-.31.77-.56,1.27.17,1.6a19.57,19.57,0,0,1,3.7-2.23,6.85,6.85,0,0,1,3.54,0c.73.16,1.07,2.87.52,3.59a13.45,13.45,0,0,1-2.74,3.06,5.27,5.27,0,0,1-3,.34c-.47,0-.41-1.62,0-2a31.28,31.28,0,0,0,2.41-2.74C162.08,37.09,161.93,36.6,161.93,36.14Z"/><path class="cls-2" d="M200.22,41.78a7,7,0,0,1-1.38-1.29,35.26,35.26,0,0,1-1.79-3.78,8,8,0,0,1-.18-1.65c-.09-.53-.26-1.05-.39-1.57a.86.86,0,0,1-.09-.4c.3-1.17.69-2.32.89-3.51.29-1.65,1.46-2.79,2.26-4.14A4.14,4.14,0,0,1,201.12,24c1.45-.79,2.19-2.43,3.65-3.09,1.09-.49,1.76-1.83,3.11-1.64a2.16,2.16,0,0,1,1.26.92c.13.19-.14.78-.37,1.08A17.17,17.17,0,0,1,205,24.51a15.34,15.34,0,0,0-2.79,2.95c-.75,1-1.34,2.05-2,3.08a.52.52,0,0,0-.08.19,25.42,25.42,0,0,0-.63,3.29,4.67,4.67,0,0,0,1.18,3.09,3.2,3.2,0,0,1,.78,3.12A6.72,6.72,0,0,1,200.22,41.78Z"/><path class="cls-2" d="M1.4,46.24c.66-.58,1.28-1.21,2-1.73a14.91,14.91,0,0,1,1.84-1l1.31-.71c.77-.41,1.55-.8,2.31-1.23,1.07-.61,2.11-1.27,3.2-1.86a18.86,18.86,0,0,1,1.84-.79L18,37.18a.75.75,0,0,1,.39-.13c1.2.12,1.89-.89,2.87-1.26.68-.27,1.35-.58,2-.79,1-.29,2-.47,2.92-.75s2.08-.69,3.12-1a2.91,2.91,0,0,1,.39-.12c2-.25,3.95-.47,5.91-.76a6.92,6.92,0,0,0,1.23-.53,2.71,2.71,0,0,1,.89-.18c2.09,0,4.18-.06,6.27,0,.88,0,1.85-.32,2.57.62.16.21.73.09,1.1.17,1,.23,1.95.47,2.92.75.1,0,.11.35.16.54l0,0c-1.18,0-2.37,0-3.55-.11-.84-.07-1.74-.57-2.5-.4-3.23.73-6.51.17-9.73.57a44.92,44.92,0,0,0-4.63,1.08c-1.22.27-2.49.37-3.68.76-1,.33-2.12.35-3,1.22a3.57,3.57,0,0,1-2.24.77,4.36,4.36,0,0,0-2.39,1,4.51,4.51,0,0,1-.85.31c-.83.36-1.65.74-2.49,1.08s-1.53.5-2.27.82c-1,.43-2,.94-3,1.41-1.36.67-2.73,1.34-4.1,2A11.06,11.06,0,0,0,2.8,46.89a6.78,6.78,0,0,1-1.22.83c-.07-.76-.11-1.14-.15-1.51Z"/><path class="cls-2" d="M249.42,44.94c1.12-.44,2-.73,2.76-1.09a4.52,4.52,0,0,0,1.26-.83,3.91,3.91,0,0,0,1.12-1.47c.35-1.24,1.29-.71,2-.82a3.58,3.58,0,0,1,.93.18l-.94,4.41a4.31,4.31,0,0,0,2.38-.34,18.63,18.63,0,0,0,4.62-3.43c.29-.27.57-.56.89-.89.8,1.39-.24,2.06-.75,2.84-.37.56-.63.89,0,1.47a.72.72,0,0,1-.22,1.26,2.38,2.38,0,0,0-.81.8c-.46.58-.83.56-1.26-.05a5.15,5.15,0,0,0-.9-.77c-2.66,2.71-4.69,4-7.34-.8-1.18,1.59-2.9,2-4.71,2a1.91,1.91,0,0,1-1.63-2.77c.36-.89.45-1.89.74-2.82a4.05,4.05,0,0,1,.84-1.59c.23-.22.87-.15,1.28,0,.2.06.42.55.39.81-.1.72-.34,1.41-.48,2.13C249.49,43.62,249.49,44.1,249.42,44.94Z"/><path class="cls-2" d="M186.83,41.39c.38-.67.69-1.34,1.11-2A2,2,0,0,0,188,37c-.75-1.13-1.44-2.3-2.13-3.47a1.07,1.07,0,0,1-.13-.7,5.58,5.58,0,0,1,1.25-3.33,23,23,0,0,0,2.41-3.25c.79-1.16,2.07-1.68,3.16-2.46a9.46,9.46,0,0,1,1.76-1.23,2.22,2.22,0,0,1,1.66,0c.3.17.46.91.41,1.37s-.44.75-.76,1c-.65.56-1.43,1-2,1.6-1.27,1.26-2.5,2.57-3.67,3.93A3.85,3.85,0,0,0,190,35a.88.88,0,0,1,.12.17,35.91,35.91,0,0,1,.65,3.56,3.28,3.28,0,0,1-.59,1.54,8.72,8.72,0,0,1-1.27,2,2,2,0,0,1-1.49.43C187.2,42.68,187.07,42,186.83,41.39Z"/><path class="cls-2" d="M279.79,48.12a5.26,5.26,0,0,1-4,1.91c-1.71,0-2.43-.67-2.51-2.39a3,3,0,0,0,0-.52,6.26,6.26,0,0,1,2.13-5.49A48.63,48.63,0,0,0,280.22,37c.85-1.1,2.18-1.41,2.94-2.5.33-.48,1.1-.15,1.2.48a3.21,3.21,0,0,1-.83,2.78c-1.36,1.53-2.69,3.08-4,4.62-.76.88-1.6,1.72-2.28,2.66a4.61,4.61,0,0,0-.65,1.76c-.2,1,.11,1.32,1.16,1.36C278.41,48.14,279.1,48.12,279.79,48.12Z"/><path class="cls-2" d="M227,42.62c.65.32,1.17.79,1.65.76a14.45,14.45,0,0,0,2.72-.62.36.36,0,0,0,.19-.21A9.71,9.71,0,0,1,235,38a3.82,3.82,0,0,1,3.48-.12c-.9,1.29-1.82,2.5-2.62,3.79-.55.9-.9,1.94-1.4,2.89a3.23,3.23,0,0,1-.77.8c-.26.23-.56.42-.95.7a18.25,18.25,0,0,0-1.3-1.77,1,1,0,0,0-.92-.08,4.26,4.26,0,0,1-3.67,1.13,2.68,2.68,0,0,1-2.36-2c-.62-1.52.26-2.64.92-3.68.39-.62,1.52-.77,2.43-1,0,.84.41,1.58-.48,2.2C227,41.16,227.11,42,227,42.62Z"/><path class="cls-2" d="M169.8,41.89c-1,.15-1.9.31-2.78.41-1.44.17-.93-1.37-1.81-1.9a25.48,25.48,0,0,1,2-2.42,7.59,7.59,0,0,1,1.85-1c.21-.11.45-.16.65-.28a4,4,0,0,1,1.14-.58c.54,2.21-1.61,2.51-2.38,3.74,1,.48,1.34.39,2-.49a6.2,6.2,0,0,1,3-2.53c1.61-.53,1.56-.68,2.09-.57.46,1.38-1,1.71-1.41,2.61s-1.68,1.29-1.05,2.56l1.78.22.09.31a11.44,11.44,0,0,1-2.44,1.43C171.1,43.88,170.31,43.31,169.8,41.89Z"/><path class="cls-2" d="M280.71,33.68c-.49-.29-1.15-.46-1.45-.89-1-1.43-.62-2.94.28-4.52a8.27,8.27,0,0,1,2.22-2.77c.52-.39,1.12-.66,1.66-1a6.23,6.23,0,0,1,3.92-.74A1.62,1.62,0,0,1,289,25.16a1.66,1.66,0,0,1-1.72,1.67c-1.78.14-2.81,1.44-4.07,2.35a32.6,32.6,0,0,0-2.3,2.39c-.73.65-.53,1.18,0,1.77Z"/><path class="cls-2" d="M131.24,45.24l.86-.42c0,.37.17.69.07.88A30.71,30.71,0,0,1,130.38,49c-.5.75-2.39.48-2.71-.3a1.15,1.15,0,0,0-1.88-.36,8.8,8.8,0,0,1-2.07,1.43,1.33,1.33,0,0,1-1.17-.59,2,2,0,0,1,.25-1.66c.53-.6,1.51-.84,2-1.47a9.08,9.08,0,0,1,2.83-2A2.29,2.29,0,0,1,131.24,45.24Z"/><path class="cls-2" d="M294.88,54l-3-.23c.08-.16.1-.26.14-.27,2.78-.36,5.52-1.15,8.38-.87.89.09,1.26.41,1.22,1.27s.16,1.86-.73,2.44a4.27,4.27,0,0,1-1.85.83c-1.24.06-2.53.47-3.73-.32-.31-.21-.85-.06-1.2-.23a7.51,7.51,0,0,1-1.21-.91,15.08,15.08,0,0,1,1.18-1.09,2,2,0,0,1,.79-.21Z"/><path class="cls-2" d="M286.89,44c1.29,0,1.87.83,1.38,1.88a9.35,9.35,0,0,1-2.74,3.25c-.5.41-1.79-.28-1.73-1a5,5,0,0,1,.67-2.56C285.06,44.85,285.68,43.75,286.89,44Z"/><path class="cls-2" d="M313.28,18.38a9.55,9.55,0,0,0-1.26-.67c-1.84-.66-3.71-1.22-5.53-2-.38-.15-1.17-.33-.94-1.19s.58-.92,1.24-.44a1.82,1.82,0,0,0,1,.4,5.51,5.51,0,0,1,5.08,2.61,4.74,4.74,0,0,1,.39,1.26Z"/><path class="cls-2" d="M61.43,51.07a6.49,6.49,0,0,0,.4-.79,1.26,1.26,0,0,1,2-.69c.77.44,1.57.75,1.47,1.9-.08,1-.54,1.68-1.29,1.79-1,.14-1.64-.15-2.13-1.34C61.77,51.64,61.59,51.37,61.43,51.07Z"/><path class="cls-2" d="M350.83,63.26c0-1-.58-2.15.54-2.83a3,3,0,0,1,1.9-.24c.27,0,.61.71.63,1.1,0,.77.38,1.59-.46,2.3-.6.51-1,.62-1.54.09A3.4,3.4,0,0,0,350.83,63.26Z"/><path class="cls-2" d="M315.21,12.09v4.35h-.29V12.08Z"/><path class="cls-2" d="M252.35,56.21h3.57v.21h-3.56Z"/><path class="cls-2" d="M313.25,18.4a5.86,5.86,0,0,1,1.11.05.6.6,0,0,1,.27.51,4.65,4.65,0,0,1-1.14,1.41l-.21-2Z"/><path class="cls-2" d="M316.57,20.42l-1.27-.85,1.18-1.11Z"/><path class="cls-2" d="M50.79,33.68h1.78c-.71.75-1.31.66-1.75,0Z"/><path class="cls-2" d="M56.7,40.12l.11-2c.72,1.23.61,1.83-.14,2Z"/></g></g></g></svg>