<svg xmlns="http://www.w3.org/2000/svg" viewBox="0 0 98.02 57.82"><defs><style>.cls-1{opacity:0.6;}.cls-2,.cls-4{fill:#fff;}.cls-3{fill:#2e2e2e;}.cls-4{font-size:6.57px;font-family:Verdana-Bold, Verdana;font-weight:700;}</style></defs><title>Ресурс 11</title><g id="Слой_2" data-name="Слой 2"><g id="Слой_1-2" data-name="Слой 1"><g class="cls-1"><path class="cls-2" d="M78.49,18.54v0l0,0a.34.34,0,0,0,.18.34,2.09,2.09,0,0,0-.34.31c-.09.1-.19.2-.31.31l.46.37c.11.08.17.27.19.58a.51.51,0,0,1-.25.15.86.86,0,0,1-.28,0,1.75,1.75,0,0,1-.4,0l-.37,0c-.28,0-.54,0-.79,0a6.63,6.63,0,0,1-.79,0l-.53,0a1.59,1.59,0,0,1-.5-.11.75.75,0,0,1-.29.11l-.28,0a3,3,0,0,1-.52,0,4,4,0,0,0-.49,0c-1,0-1.87,0-2.78,0s-1.84,0-2.79,0h-1.2a9.44,9.44,0,0,1-1.2-.07V.09C66.07.05,67,0,67.83,0h2.65l4.08,0c1.36,0,2.72,0,4.08,0,0,.31,0,.62,0,.92s0,.62,0,.93,0,.37,0,.57a3.72,3.72,0,0,1-.08.57,1.39,1.39,0,0,0-.37,0l-.44,0a1.2,1.2,0,0,1-.4-.06.49.49,0,0,1-.27-.22l0,.09c0,.09,0,.11,0,.08s0,0,0,0A.05.05,0,0,1,77,3h0c-.57,0-1.15,0-1.72,0s-1.15,0-1.72,0L68.05,3V8.5h4l1.35,0q.66,0,1.35,0h.37a5.59,5.59,0,0,1,.57,0l.54.06q.24,0,.27.12a.38.38,0,0,1,.25-.13l.28,0,.36,0a1.4,1.4,0,0,0,.35,0,.61.61,0,0,1,.09.31.88.88,0,0,1,0,.21.19.19,0,0,1-.12.16.72.72,0,0,1,.14.35c0,.14,0,.25,0,.36s0,.4,0,.6a3,3,0,0,0,0,.6.28.28,0,0,0-.18-.1.21.21,0,0,0-.15.07.18.18,0,0,1-.14.06l-.05,0h-.07L77,10.87,76.8,11h-.21a.27.27,0,0,1,.15.24v.16H68.05v1.44c0,.8,0,1.6,0,2.41s0,1.59,0,2.37q1.55.12,3.09.09c1,0,2,0,3.08,0H75a1,1,0,0,1,.74.21c.08,0,.1,0,.06-.06s0-.12.12-.12h1.4l.81.07c.25,0,.38.06.4.1a.54.54,0,0,0,.06.11.2.2,0,0,1,0,.11s0,.06-.09.06l-.09.22h0l0,0v.09ZM65.5,8.9a.46.46,0,0,1,.06-.18h-.12s-.06.07-.06.09A.12.12,0,0,0,65.5,8.9Zm.06,5.85s.06-.07.06-.09a.11.11,0,0,0-.12-.12.05.05,0,0,0-.06.06Q65.56,14.6,65.56,14.75Zm0,1s0,0,0,0a.05.05,0,0,0,0,0s0,0,0,.06h0l0,0ZM67.73,3.88l-.09,0s0,0,0,.06a.09.09,0,0,1,.07,0S67.73,3.92,67.73,3.88Zm.86,5.17c-.1,0-.15,0-.15.07S68.57,9.1,68.59,9.05ZM69,2.8a.11.11,0,0,1,.12-.12A.07.07,0,0,1,69,2.63s0,0-.08,0h0v.11S68.93,2.8,69,2.8Zm1.1,8.07h0s0,0-.06,0l-.09,0,0,.09q0,.09.06.09A.12.12,0,0,0,70.07,10.87Zm.27-.46q-.12,0-.12.06T70.34,10.41Zm1.63.12h0a.05.05,0,0,0,0,0,0,0,0,0,0,0,0s0,0,0,0a.05.05,0,0,0,0,0S72,10.57,72,10.53Zm2.76,8.35q-.15,0-.15.06T74.73,18.88Zm0,.74-.06,0h-.06l0,0,0,.06A.17.17,0,0,0,74.73,19.62Zm.32.68v0a1.38,1.38,0,0,0,.06-.16.08.08,0,0,1,.12-.06v-.34h-.06a.13.13,0,0,1-.1,0,.13.13,0,0,0-.11-.05s-.06,0-.06.09.09,0,.09.06a.11.11,0,0,1-.06.1l-.09,0c.08,0,.12.08.11.14s0,.11,0,.2Zm.12-10.44a.1.1,0,0,1-.09,0s0,0,0,.05S75.17,9.9,75.17,9.86Zm0,9.7s-.06,0-.06,0h-.06v0s0,0,.06,0S75.17,19.58,75.17,19.56Zm.53-8.87v0h0a1,1,0,0,0-.3.06.28.28,0,0,0-.21.21.18.18,0,0,0,.16.17l.23.05a.4.4,0,0,1,.13-.17.4.4,0,0,0,.13-.17h-.06S75.7,10.77,75.7,10.69Zm-.47,8.59a.15.15,0,0,1,.12-.08.1.1,0,0,0,.09-.11V19h0a.29.29,0,0,0-.15.06.19.19,0,0,0-.09.16A.05.05,0,0,0,75.23,19.28Zm.15-.68a.15.15,0,0,1-.11,0s0,0,0,0S75.36,18.64,75.38,18.6ZM75.56,20s0,0,0-.06,0-.07-.12-.07l-.09.07Zm0-.47a.12.12,0,0,0-.09,0,0,0,0,0,0,0,0s0,0,0,0A.1.1,0,0,0,75.56,19.49Zm0-10.44h.14V9c0-.06,0-.09-.11-.09L75.5,9Zm.38,1.08a.24.24,0,0,0-.18-.06.05.05,0,0,0-.06.06h0a.11.11,0,0,1,.09,0,.1.1,0,0,0,.09,0S75.94,10.19,75.94,10.13Zm.42.56q-.15,0-.15.06s.07,0,.09,0S76.34,10.73,76.36,10.69Zm.12,9.61v-.07s0-.06-.08-.06a.18.18,0,0,1-.13-.06v.09c0,.09,0,.13.12.13Zm.06-11.18q-.12,0-.12.06T76.54,9.12Zm.14-.34a.12.12,0,0,1-.09,0,.1.1,0,0,0-.08,0h0s0,0,0,.06,0,.09.12.09Zm.06.89s-.07-.06-.09-.06a.05.05,0,0,0-.06.06l0,0h.08Zm0,.46h0q-.09,0-.09,0s0,0,.12,0v-.06l0,0Zm-.06,9.21.09,0q.12,0,.24-.21a.4.4,0,0,1-.21-.07.1.1,0,0,1-.07.1.12.12,0,0,0-.08.12Zm.12.49c-.08,0-.12,0-.12.07S76.8,19.87,76.8,19.83Zm.12-10.1h-.18v.13l.12.06a.27.27,0,0,0,.06-.19l0,0,0,0,0,0Zm.33-.06q-.12,0-.12.06a.06.06,0,0,1,.07,0S77.25,9.71,77.25,9.67Zm.09,1s-.07-.06-.09-.06a.05.05,0,0,0-.06.06s.06,0,.06,0,0,0,.06,0Zm.11,8.93v.06h0q-.21,0-.21.18c0,.07,0,.1.12.1l0,0c0-.07,0-.11.07-.13a.11.11,0,0,0,.07-.12h0a.09.09,0,0,0,0-.06s0-.06-.08-.06-.05,0-.09.06A.14.14,0,0,0,77.45,19.62Zm-.2-8.41a.33.33,0,0,0,.26.06.15.15,0,0,1-.17.16h-.09Zm.2-1.63a.09.09,0,0,1-.07,0s0,0,0,.06a.09.09,0,0,1,.07,0S77.45,9.62,77.45,9.58Zm.06,8.9H77.4a.05.05,0,0,0-.06.06h.1S77.51,18.52,77.51,18.48Zm.21-.22a.13.13,0,0,1-.1,0s-.05,0-.05,0S77.72,18.3,77.72,18.26ZM77.66,1.45v.21h.06s.06,0,.06-.12,0-.13-.12-.09h0l0,0,0,0Zm.12,16.75s0-.07,0-.08,0,0,0-.07L77.78,18s0,.06,0,.07,0,0,0,.08A.05.05,0,0,0,77.78,18.2Zm.68.22a.05.05,0,0,0-.06-.06s0,0,0,.06l.09,0Zm0,.12q-.09,0-.09.06h.09Z"/><path class="cls-2" d="M5.93,12.47s.05-.15,0-.38,0-.39,0-.45A.3.3,0,0,1,6,11.5c0-.05.06-.07.1-.07s.07,0,.09.09a.49.49,0,0,1,0,.15h.15v-.4l-.09.09a.43.43,0,0,0-.39-.18A.14.14,0,0,1,6,11.1.07.07,0,0,0,6,11a.48.48,0,0,0,0-.22.48.48,0,0,1-.05-.22q0-.09.09,0a5.79,5.79,0,0,1-.13-1.18c0-.61,0-1.26,0-2s0-1.37,0-2,0-1.11,0-1.37v-1H0V.12H14.56V3.05H8.69V14.57q0,.24-.21.15c0,.08,0,.12.11.12s.1.05.1.13v5.76H5.87c0-.7,0-1.4,0-2.1s0-1.4,0-2.12V15.2c0-.44,0-.88.06-1.31l.09,0h.09a.28.28,0,0,1,.21.08.51.51,0,0,0,.21.1.3.3,0,0,0-.27-.26H5.87a.94.94,0,0,0,0-.63A1.07,1.07,0,0,1,5.93,12.47ZM.21,2.43h0a.05.05,0,0,0,0,0s-.06,0-.06,0,.06,0,.06,0,0,0,.06,0A.09.09,0,0,1,.21,2.43ZM3,1h.08V1C3.08.78,3,.68,2.82.68s-.31.21-.27.4v.06a.85.85,0,0,1,.22.09A.46.46,0,0,0,3,1.29h.08A.14.14,0,0,1,3,1.14ZM3,1A0,0,0,0,1,3,1L3,1ZM6.05,14a0,0,0,0,0,0,0l.05,0h0l0,0A.12.12,0,0,0,6.05,14Zm.15-2.92V11s0-.06,0-.06,0,0,0,.06v.13s0,.06,0,.06S6.2,11.15,6.2,11.09Zm.21-.43-.11-.08a.39.39,0,0,0-.1-.08v.06c0,.11,0,.16.12.16S6.41,10.7,6.41,10.66Zm0-6.19-.11,0s0,0,0,.06l.1,0S6.41,4.51,6.41,4.47Zm.71,7.05v0a.1.1,0,0,0,.06.09l.12,0,.09-.06-.06-.15a.29.29,0,0,0,.22-.07.86.86,0,0,1,.22-.12,1.74,1.74,0,0,1-.38,0,1.16,1.16,0,0,1-.27,0c-.12,0-.16-.1-.12-.2l-.15,0a.51.51,0,0,1-.3-.1,1.59,1.59,0,0,0-.29-.15.24.24,0,0,0,0,.15.27.27,0,0,1,0,.13h0a.25.25,0,0,1,.19.07l.15.16a1.07,1.07,0,0,0,.16.14A.31.31,0,0,0,7.12,11.52Zm-.65.28.06.06.11-.06a.91.91,0,0,1-.13-.1.22.22,0,0,0-.13-.06,0,0,0,0,0,0,0C6.43,11.67,6.47,11.71,6.47,11.8Zm-.06.89h0a.08.08,0,0,0,.07.08h.13a.18.18,0,0,0,.15-.09h0a.21.21,0,0,1-.12,0,.17.17,0,0,0-.11,0S6.41,12.63,6.41,12.69Zm.06-.16c0-.1.09-.13.16-.1s.12,0,.16-.14a.18.18,0,0,1-.12-.16v0a.16.16,0,0,1-.13.17c-.09,0-.13.08-.13.14A.05.05,0,0,0,6.47,12.53Zm0-.67V11.8l0,0ZM6.58,3c-.07,0-.11,0-.11.06S6.58,3,6.58,3Zm0,8.87H6.47s0,.06,0,.06Zm0-7.24h.14V4.47H6.53Zm.26,9.7a.1.1,0,0,1,.09.06.1.1,0,0,0,.09.06s0,0,.09-.06v-.06q0-.12-.15-.12A.11.11,0,0,0,6.79,14.32Zm.71-1.57a.2.2,0,0,1,.15-.06.63.63,0,0,0-.18-.22.35.35,0,0,0-.23-.09.26.26,0,0,0-.18.09L7,12.35s-.06.07-.06.09,0,.07.09.09a.59.59,0,0,0,.19.05l.2.05A.12.12,0,0,1,7.5,12.75Zm-.17-1.29s-.06,0-.06,0,0,0,.06,0ZM8,9.09H7.92a.1.1,0,0,0-.09.06H8A.1.1,0,0,0,8,9.09Zm-.21,4,.13,0S8,13,8,13v0H7.89Zm.39-1a.2.2,0,0,0-.15-.06A.32.32,0,0,1,7.89,12v0c0,.15.07.22.21.22S8.22,12.22,8.22,12.13Zm.09,3.61s0-.07,0-.09a.3.3,0,0,0,0-.1.08.08,0,0,0-.09-.09H8.16v.06C8.16,15.65,8.21,15.72,8.31,15.74ZM9.91,1.2l.15-.06V.8L9.92.74,9.79.68a.12.12,0,0,1,0,.09.1.1,0,0,1-.08.11c-.05,0-.07,0-.07.11S9.75,1.2,9.91,1.2Zm1.66.89a.11.11,0,0,0,.12.07c.08,0,.11,0,.11-.1S11.73,2,11.69,2A.11.11,0,0,1,11.57,2.09Z"/><path class="cls-2" d="M15.82,14.32V14a.66.66,0,0,0,.53-.4.12.12,0,0,0,.12.06q.18,0,.21-.12s0-.06-.1-.06h-.17v-.09s0-.07-.06-.07a.21.21,0,0,0-.16.11.17.17,0,0,0,0,.17.14.14,0,0,0,0-.06.13.13,0,0,1,0-.06.55.55,0,0,1,.17-.36c.12-.11.16-.22.12-.32l.15-.06s0,0,.05-.08a.49.49,0,0,0,0-.11,1.9,1.9,0,0,0,.09-.29A1.9,1.9,0,0,1,16.8,12c.36-.82.7-1.66,1-2.53A21.59,21.59,0,0,1,19,6.93.05.05,0,0,0,19,7s0,0,.05,0a.16.16,0,0,1,0-.07,4.07,4.07,0,0,0,.31-.93,2.47,2.47,0,0,1,.4-.89,2.6,2.6,0,0,1,.08-.4c.05-.2.13-.28.25-.22a3.34,3.34,0,0,1,.19-.83c.11-.3.24-.62.39-.94s.3-.63.46-.94a7.83,7.83,0,0,0,.38-.8.64.64,0,0,1,.14-.41.64.64,0,0,0,.13-.42h.06c.1,0,.16.07.19.2a1.65,1.65,0,0,1,.05.33V.74a.13.13,0,0,1,0,.08s0,0,0,0a.16.16,0,0,0,0,.08s.05,0,.09,0a3.38,3.38,0,0,1,.19.39c.11.23.22.49.34.77l.48,1.12a.12.12,0,0,1,0,.09.29.29,0,0,0-.06.1l.13.13a1,1,0,0,1,.13.2V4.1L23.27,4V3.88A.68.68,0,0,0,23,4a.64.64,0,0,1-.25.11c0,.08,0,.12.08.12s.1,0,.1.09v.06a.46.46,0,0,1-.19.08l-.2,0a.29.29,0,0,0-.16,0,.29.29,0,0,0-.1.2.25.25,0,0,1-.23-.11l-.16-.23-.21-.12A.31.31,0,0,1,21.57,4l.06-.15a.56.56,0,0,0-.2.17.4.4,0,0,0-.12.2h.09a.47.47,0,0,0,.17,0v.06a.21.21,0,0,0,.05.12.29.29,0,0,1,0,.16s0,0-.07,0-.07,0-.07,0,.06.14.13.12l.19,0a.17.17,0,0,0-.06.12c0,.11.06.14.17.1s.16,0,.16.18l.06.12h.18l.08-.12a.12.12,0,0,0,.09,0,.1.1,0,0,0,.09,0,.09.09,0,0,1,.09,0,.17.17,0,0,1,.12.06c.1,0,.14,0,.12-.11s0-.15.06-.17-.06-.11-.12-.1a.53.53,0,0,1-.21,0c0,.16,0,.23-.18.19a.26.26,0,0,1,.18-.19c.06-.1.13-.14.19-.11s.12,0,.14-.17c.06.09.11.12.15.1a.39.39,0,0,1,.17,0,.15.15,0,0,1,.06.13.16.16,0,0,1,0,.09.37.37,0,0,0-.07.12.39.39,0,0,0,.26-.06c0,.1,0,.15-.12.13s.08.11.12.1h.15L23.8,5s.06,0,.06,0a.11.11,0,0,0-.05-.09.12.12,0,0,1,0-.1.09.09,0,0,1,0-.06c.1,0,.16.06.18.13a1.65,1.65,0,0,0,.09.21S24,5,24,5H24a0,0,0,0,1,0,0,.17.17,0,0,1-.12,0,1.51,1.51,0,0,1,.28.15.3.3,0,0,1,.13.25.57.57,0,0,1,0,.22L24,5.57l-.12.22s-.06-.08-.05-.11a.31.31,0,0,0,0-.11.27.27,0,0,0,0-.12l-.15.06,0-.12h-.09s-.07,0-.09.08a.09.09,0,0,1-.09.07c-.1,0-.14,0-.14-.12a.49.49,0,0,1,0-.14c0-.07,0-.11,0-.11s0,0,.08,0l.12,0c0-.14-.07-.2-.2-.18a.29.29,0,0,1-.33.18l.09.16a.2.2,0,0,0-.06.15.22.22,0,0,0,0,.09.25.25,0,0,1,0,.1h.09a.11.11,0,0,0,.09,0,.11.11,0,0,1,.09,0h.05a1.3,1.3,0,0,0-.08.27,1.36,1.36,0,0,1-.09.23c.1,0,.13,0,.12.12l.28-.11L23.86,6v.06s0,.07-.12.09-.12,0-.12.09a.1.1,0,0,0,.06.09h.06s0-.06.09-.06a.09.09,0,0,1,0,.06h-.12a.07.07,0,0,0-.06,0s0,0,0,0l-.13,0c-.05,0-.08,0-.08.08s0,.15.09.15a.17.17,0,0,0,.15-.08.18.18,0,0,1,.15-.07.41.41,0,0,1-.06.27l.06.07h.06a.05.05,0,0,1,.06.06Q24,7,23.89,7l0-.18-.06-.07h-.09s-.06,0-.06,0a.12.12,0,0,0,.06.1.14.14,0,0,1,.06.11l-.09,0,0,0v.06l0,.31,0,0h.05c.1,0,.18-.08.24-.25a1.21,1.21,0,0,1,.17-.33.46.46,0,0,0,.18.06.32.32,0,0,0,.18-.06l.18-.13c.06.09.25.46.56,1.13S26,9.3,26.41,10.27s.9,2,1.39,3.19,1,2.23,1.38,3.23.79,1.88,1.08,2.62a12.13,12.13,0,0,1,.51,1.39H18.31v0a2.67,2.67,0,0,1,.15-.53c.1-.3.21-.62.34-1s.25-.66.37-1,.2-.49.24-.57h7a2.94,2.94,0,0,0-.3-.91c-.16-.32-.29-.6-.41-.85a.86.86,0,0,1,0-.15c0-.06.05-.07.11,0l-.18-.13a.54.54,0,0,1-.15-.15c-.57-1.36-1.15-2.7-1.74-4s-1.13-2.67-1.64-4l.41-.11a3.25,3.25,0,0,0,.42-.11c0-.1-.07-.13-.15-.1a.59.59,0,0,1-.21,0,.13.13,0,0,1-.15-.15s0,0,0-.06a.08.08,0,0,0-.05-.08.31.31,0,0,1-.12,0,.62.62,0,0,1,.46-.29.92.92,0,0,0,.52-.26l-.12-.12c-.06,0-.1,0-.12,0l-.09.11s0,0-.09,0-.22.08-.18.25c-.08,0-.1-.08-.07-.17a.74.74,0,0,0,0-.2c0-.09,0-.13-.1-.13h-.19v-.4q-.15,0-.12-.12l-.14.15a.19.19,0,0,1-.16.1l-.09-.07c0,.11.05.23.08.37s.1.21.22.19h.09q0-.15.12-.12v.12h-.12v.21l-.11-.06a.17.17,0,0,0-.1,0h-.18a.22.22,0,0,1,.11.13.38.38,0,0,1,0,.1.12.12,0,0,0,0,.08.53.53,0,0,0,.23,0,.85.85,0,0,0-.27.29c-.08.14-.15.28-.22.43s-.14.31-.2.47a2,2,0,0,1-.17.38c-.3.68-.59,1.36-.86,2.05l-.83,2c-.62,1.41-1.22,2.83-1.83,4.23S16.64,19.28,16,20.7H13c0-.13.14-.36.28-.71l.51-1.22c.19-.46.38-.95.59-1.46s.41-1,.61-1.42l.5-1.08A1.74,1.74,0,0,1,15.82,14.32Zm0,0-.06.09c0,.06,0,.1.09.1a.24.24,0,0,0,.24-.19l-.06,0q-.12,0-.06.12Zm.39,1.17h.06a.42.42,0,0,0,.26-.08.24.24,0,0,1,.27,0,.17.17,0,0,0,0-.12s0-.05-.09,0l-.12,0c-.1,0-.14-.05-.13-.16s0-.15-.14-.15h-.06a.78.78,0,0,1,0,.24A.31.31,0,0,1,16.21,15.49ZM16.68,14q-.12.06-.12.09a.11.11,0,0,1,.08,0S16.68,14,16.68,14Zm.06-.8c.08,0,.11.05.09.14s0,.14.12.14a.21.21,0,0,0,.12-.05.14.14,0,0,1,.14,0v-.06a.25.25,0,0,0,0-.16.19.19,0,0,1,0-.12H17Q16.74,13.06,16.74,13.18Zm.53,2.59h-.09a.53.53,0,0,1-.23-.06v0q-.06.15.12.15a.17.17,0,0,0,.11,0Zm.39-4.5a.29.29,0,0,0,.21.06.37.37,0,0,0,.38-.24l-.16-.22a.36.36,0,0,0-.22-.12c-.12.08-.18.16-.18.23A1.89,1.89,0,0,1,17.66,11.27Zm.27,4.34q0-.12-.15-.18Q17.78,15.55,17.93,15.61Zm.17-4.06H18a.05.05,0,0,0-.06.06h.12S18.1,11.59,18.1,11.55Zm.15-2.5c-.1,0-.15,0-.15.07S18.25,9.1,18.25,9.05Zm.66,2.1s.07.06.17.06l.11,0,.1,0v-.22a.2.2,0,0,0-.15-.06c-.16,0-.23.08-.23.25Zm1-4.68-.06.06h-.08s-.06,0-.06.12l.06.09v0a.12.12,0,0,1,0-.09l.05-.09Zm0-1.39,0,0A0,0,0,0,0,19.85,5.08Zm.12.83.15-.07c.06,0,.09-.07.09-.11a.34.34,0,0,0-.15,0A.16.16,0,0,0,20,5.91Zm0-.34.11.07a.17.17,0,0,0,.1,0h.06V5.51l-.12-.06Q20.15,5.57,20,5.57Zm.15-.4,0,0s0,0,.08,0a.08.08,0,0,1,.07.08l0,0,0,0q.06.12.12.12l.13-.2a1.67,1.67,0,0,0,.13-.2A.14.14,0,0,0,20.54,5a.1.1,0,0,0-.09.06.1.1,0,0,1-.09.06s-.05,0-.09-.06.12-.09.12-.15a.16.16,0,0,0-.18-.13v.1a.51.51,0,0,1,0,.17A.35.35,0,0,0,20.15,5.17Zm.18-1.07h.09A.25.25,0,0,0,20.57,4a.17.17,0,0,0,.08-.15l0-.12c0,.1-.05.15-.14.15s-.13,0-.13.16Zm.06,2.77h.15a.12.12,0,0,0,0-.09c0-.07,0-.1-.09-.1A.28.28,0,0,1,20.39,6.87ZM21,3.33a.11.11,0,0,0-.06-.1l-.09,0c0,.09-.07.12-.1.11h-.13q-.09,0-.09.12a.12.12,0,0,0,.09,0l.22-.05C21,3.37,21,3.35,21,3.33Zm-.15,2.06h-.09c-.15,0-.23,0-.23.15a.2.2,0,0,0,0,.07.14.14,0,0,1,0,.06,1,1,0,0,1,.35,0V5.61a.18.18,0,0,0,0-.11.2.2,0,0,1,0-.11v0h0ZM20.6,7.14v0a.1.1,0,0,1,0-.09.22.22,0,0,0,.07-.09.09.09,0,0,0-.06,0c-.07,0-.11,0-.11.15Zm.26-2.58-.15-.06a.43.43,0,0,0-.11.21h0c.06,0,.09,0,.08-.11S20.76,4.52,20.86,4.56Zm-.15.34A.2.2,0,0,1,20.8,5a.1.1,0,0,0,.09.06Q21,5.05,21,5c0-.06-.05-.12-.15-.19C20.86,4.86,20.81,4.9,20.71,4.9Zm0,3.08a.18.18,0,0,0,.05-.07l0-.06,0,.06A.18.18,0,0,1,20.74,8Zm.18-4.16a.21.21,0,0,0-.15.21l0,.07h.06c.08,0,.12,0,.12-.07A.17.17,0,0,1,20.86,4s.08,0,.12-.09H21L21,3.82V3.76l0,0S20.92,3.76,20.92,3.82Zm.06.74h-.12q0,.15.09.15a.12.12,0,0,0,0-.09Zm-.06-.74H21v.06s-.06,0-.06,0Zm.27,1.35.12.07h-.12v.15h0a.12.12,0,0,0,.12-.06.1.1,0,0,1,.09-.06s.05,0,.09.06,0,.06.1.06h.16V5.24h0a.24.24,0,0,1,.15,0,.21.21,0,0,0,.12,0c.06,0,.09,0,.09-.16s-.14,0-.06-.12a.66.66,0,0,0-.21,0l-.18,0a.12.12,0,0,0-.09.12c-.1,0-.14,0-.13-.09a1.25,1.25,0,0,0,0-.21c0-.11-.07-.18-.21-.22a.17.17,0,0,0,.06-.12s-.05-.06-.15-.06l-.12,0L21,4.56l.06.15.09-.15c.06,0,.08.07.06.17a1.06,1.06,0,0,0,0,.2l.09.12Zm0-2.09s-.06,0-.06,0,0,0-.06,0a0,0,0,0,1,0,0,.12.12,0,0,0,.09,0S21.19,3.1,21.19,3.08Zm-.06,1.2s0,0-.06,0a.09.09,0,0,1,0,.06l.05,0h0l.06,0S21.13,4.3,21.13,4.28Zm.12-1.94q-.12,0-.12.06T21.25,2.34Zm0,.28q-.12,0-.12.06a.06.06,0,0,1,.07,0S21.25,2.66,21.25,2.62Zm-.06,2.62V5.17h-.06S21.15,5.24,21.19,5.24Zm.38-1.88,0,0s-.05-.05-.14-.1l-.21-.09a.66.66,0,0,0,.07.32.32.32,0,0,0,.25.17.17.17,0,0,0,0-.1.31.31,0,0,1,0-.08A.14.14,0,0,1,21.57,3.36Zm-.2,4.8s0-.06-.12-.06S21.29,8.16,21.37,8.16Zm.09-2.43a.17.17,0,0,0-.12,0,0,0,0,0,0,0,0l0,0A.17.17,0,0,0,21.46,5.73ZM21.57.92l.12.07V.92l0-.06Zm.12,2.16s.06-.07.06-.09a.15.15,0,0,0,0-.11l-.08-.08V3A.12.12,0,0,0,21.69,3.08Zm.09,1a.2.2,0,0,1,0-.09.22.22,0,0,0,0-.09q-.06-.09-.12-.09a.33.33,0,0,1,0,.15A.12.12,0,0,0,21.78,4Zm0,.28s.06,0,0,0a.14.14,0,0,1,0-.11S21.78,4.21,21.78,4.31Zm0,1.08v.06a0,0,0,0,0,0,0Zm.12-1h0s0,0,0-.06A.05.05,0,0,0,21.9,4.37Zm.12,1q-.12,0-.12.06T22,5.39ZM22,4.31a.48.48,0,0,0,.21.06.47.47,0,0,0-.08-.14l-.1-.1ZM22,3.88l0,.06.06-.06H22l0,0Zm.33-1.08a.08.08,0,0,1-.08,0s0,0,0,0S22.35,2.84,22.35,2.8Zm0,1.3-.05,0h-.07l.32.09a.09.09,0,0,0,0-.06c0-.07,0-.1-.12-.1Zm0-2.59,0-.09c0-.09,0-.13,0-.13s-.06,0-.06.1Zm.08,1.69h.12a.09.09,0,0,0,0-.06s0-.06-.12-.06l-.11.06Zm.06.1c-.1,0-.14,0-.14.06a.13.13,0,0,1,.1,0S22.49,3.34,22.49,3.3Zm-.14,1.87v.07s.06,0,.06,0Zm0,.34h0s.05,0,.05-.06h0A.05.05,0,0,0,22.35,5.51Zm.08-.06a.05.05,0,0,0,.06-.06h0S22.43,5.41,22.43,5.45Zm.06-1.82a0,0,0,0,0,0,0,.13.13,0,0,0,0,.1v0s.06,0,.12-.09l.15.06a.12.12,0,0,0,.09-.13.18.18,0,0,1,.09-.15c0,.06,0,.11,0,.14s0,.08,0,.14l-.06.06a0,0,0,0,0,0,0h0l.06,0,0,0,0,0,0,0,0,0V3.76h.09v-.1a.65.65,0,0,0-.15-.46.13.13,0,0,1,0,.1c0,.1,0,.14-.13.13h-.2Q22.4,3.42,22.49,3.63Zm.12.07-.06.06h-.06V3.63s.07-.06.09-.06,0,0,0,.09Zm-.12,1.69h.06s0-.06,0-.06Zm.27-.55s0,0,0,0l.05,0,0,0a.06.06,0,1,1-.12,0ZM23,2.68h-.06l0,0ZM23.15,19,23,19s0,0,0,.06l.1,0S23.15,19,23.15,19Zm.06-14.35a.05.05,0,0,1-.05,0s0,0-.07,0v.06l.06,0S23.21,4.67,23.21,4.65Zm.06.34V5a.17.17,0,0,0-.06-.12v0Zm.05,3.29a.28.28,0,0,0,.27.19A.51.51,0,0,0,24,8.22.21.21,0,0,1,23.86,8a.51.51,0,0,1,0-.22.3.3,0,0,0,0-.21v-.1h-.09a.33.33,0,0,0-.15,0,.24.24,0,0,1-.15,0v.12a.48.48,0,0,0,.06.21.21.21,0,0,1-.22.16c-.11,0-.16.06-.16.18v.06Zm0-1.54v.19l0,0c.12,0,.18-.07.18-.22v0h0v0S23.42,6.79,23.32,6.74Zm0,1.54.06,0,0,0Zm.54-2.95-.12-.09v0q0,.09,0,.09Zm0,.12h0q.15,0,.15-.09a.17.17,0,0,0-.12-.06l-.06,0Zm.27.34v.34h0C24,6.13,24,6.1,24,6a1.06,1.06,0,0,0,0-.19A.48.48,0,0,0,24.13,5.79Zm.44.55c.1,0,.15.11.15.19a.2.2,0,0,1-.15-.19.19.19,0,0,0-.19.13.19.19,0,0,1-.2.12.3.3,0,0,1,.14-.21,1.17,1.17,0,0,1,.25-.13ZM25,9.05,25,9V9S25,9.05,25,9.05Zm.06-.67h0a.29.29,0,0,0,.15-.06c.06-.05.09-.09.09-.13v0h-.12l-.09,0-.06,0v0a.12.12,0,0,0,0,.09A.17.17,0,0,1,25.1,8.38Zm.27,1.29a.3.3,0,0,0,.15-.28.19.19,0,0,0-.21-.21.14.14,0,0,0-.13.09.37.37,0,0,0-.05.15C25.13,9.55,25.21,9.63,25.37,9.67Zm0-1.11v0h0s0,0,0,0S25.33,8.56,25.37,8.56Zm.06,3.73,0,0h-.05l0,0a.05.05,0,0,1,.05,0s0,0,0,0S25.43,12.33,25.43,12.29Z"/><path class="cls-2" d="M46.58,10.84s-.06.07-.06.09a.56.56,0,0,0,0,.23,2.09,2.09,0,0,1,.08.23s-.06,0-.12,0-.21-.07-.21-.19a.26.26,0,0,0-.15-.25v-.06l.15-.06a2.67,2.67,0,0,0-.47,0c0-.14-.06-.26-.24-.34q0-.06.12-.12c0-.06-.06-.08-.11-.05a.27.27,0,0,1-.13.05v0l0-.09a.32.32,0,0,0-.28.1c0,.08-.15.09-.31.05a.38.38,0,0,1,.09.28v0a1,1,0,0,0-.6.34s0,0,.08,0l.13,0a.17.17,0,0,1-.18.15h-.23v0s0,0-.05.06a.34.34,0,0,0,0,.09c0,.09,0,.12.1.11s.1,0,.1.11a.49.49,0,0,1,.36-.12,1,1,0,0,1,.5.12.86.86,0,0,0,.57.06.25.25,0,0,0-.09.15.16.16,0,0,0,.07.13.14.14,0,0,0,.17,0s0,0,0,.09a.23.23,0,0,1-.08.14.42.42,0,0,0-.1.17l.15.06c.06-.1.1-.15.14-.14l.21,0a.17.17,0,0,0,.15-.1,1.14,1.14,0,0,1,.06.25q0,.09-.12.09c0,.11.05.16.15.16l.06-.16a.53.53,0,0,1,.06.28,1,1,0,0,1-.06.32.35.35,0,0,1-.21.23.37.37,0,0,1,.12.14c0,.05.07.07.15.05V20.7a21.79,21.79,0,0,0-1.74-1.84A13.27,13.27,0,0,1,43.23,17l.15.06c.07,0,.11-.05.11-.15s-.05-.19-.14-.19-.12,0-.12.13c0-.09-.08-.12-.12-.1a.51.51,0,0,1-.21,0,.2.2,0,0,1-.06-.15l.06-.19,0,0,0,0a.76.76,0,0,1-.4-.22,4.93,4.93,0,0,1-.52-.51c-.18-.19-.34-.38-.49-.57a3.48,3.48,0,0,1-.31-.43,6.26,6.26,0,0,0-.59-.63l-.77-.71L39,12.72a2.3,2.3,0,0,1-.41-.49.22.22,0,0,1,0-.22,1.29,1.29,0,0,0-.37-.26.5.5,0,0,1-.28-.36s-.06-.11-.17-.21l-.37-.34c-.14-.12-.26-.24-.37-.35s-.16-.2-.16-.27a.17.17,0,0,1,0-.12.1.1,0,0,1,.06.09v.13H37c.08,0,.12-.05.12-.14a.13.13,0,0,1,.14-.14l-.13-.12A.7.7,0,0,1,37,9.76a.1.1,0,0,0-.06.1V10a4.35,4.35,0,0,0-.45-.37.63.63,0,0,1-.2-.52s0,0,0,0-.07-.11-.21-.16a.83.83,0,0,0-.27-.08.11.11,0,0,1,.05-.09.12.12,0,0,0,0-.1l0-.06a.07.07,0,0,0-.07.06.08.08,0,0,1-.08.06h-.06a.2.2,0,0,0-.13-.2.18.18,0,0,1-.13-.2l-.12-.06c-.06,0-.11.11-.15.25a1.1,1.1,0,0,0-.33-.25.78.78,0,0,0-.06.26.48.48,0,0,1-.12.27.09.09,0,0,0-.1.09c0,.06-.06.08-.16.06s0,.07.09.08.07,0,0,.11h.06A.13.13,0,0,0,34.7,9s0-.06.07-.06.09,0,.09.06v1h-.09a.3.3,0,0,1-.16-.05.24.24,0,0,0-.19,0,.63.63,0,0,0-.21-.28.33.33,0,0,1-.15-.25.25.25,0,0,1,.09-.15q0-.09-.12-.09h-.21A.23.23,0,0,0,33.88,9a.22.22,0,0,0-.14-.21.72.72,0,0,1-.24-.16l.06-.21a.69.69,0,0,0-.36-.09h-.13l-.17,0A.67.67,0,0,0,33,8.5a.21.21,0,0,1,.07.18l.12.07-.06-.13h0c.08,0,.15.07.21.2s.11.28.16.43a2.81,2.81,0,0,0,.17.42c0,.12.13.18.23.15L34,10a.2.2,0,0,0,.11,0,.17.17,0,0,1,.1,0,.1.1,0,0,1,.06.09v.09a.35.35,0,0,0,.27.19s.07,0,.11-.13h.18v1.39h0c-.1,0-.13-.05-.1-.16s0-.15-.11-.15,0,0,0,0h-.06s0,.07,0,.08,0,0,0,.08v0a.25.25,0,0,1,.17.27c0,.15.07.22.21.22,0,1.46,0,2.91,0,4.36s0,2.91,0,4.39a8.49,8.49,0,0,0-.87,0l-.88,0h-.56a1.88,1.88,0,0,1-.53-.07c0-1.49,0-3,0-4.48s0-3,.08-4.48h.39v0q-.06-.12-.12-.12a.1.1,0,0,0-.09,0,.09.09,0,0,1-.09,0,.07.07,0,0,1-.07-.06.5.5,0,0,1,0-.12.35.35,0,0,1,0-.14s0-.06.09,0v-.09a0,0,0,0,0,0,0l0,0a.08.08,0,0,1-.09-.09l0-.1a.12.12,0,0,1,.09,0s.09,0,.14.13a2,2,0,0,1,.1.18c0-.06.08-.09.13-.09s.1,0,.14-.12a.36.36,0,0,1-.3-.16q-.06-.12-.3-.06c0-1.81,0-3.6,0-5.39V.06c.86.86,1.7,1.74,2.52,2.63s1.6,1.81,2.37,2.73h0q.09,0,.12.15c0,.11.1.15.23.13a.42.42,0,0,0-.08.12.33.33,0,0,0,0,.15l.06.13A.18.18,0,0,1,37.41,6q.18,0,.36.27a2.18,2.18,0,0,1,.24.41.35.35,0,0,1,.2.09c.08.07.12.12.12.16L38.21,7l.09.06L38.39,7c.93,1,1.84,1.93,2.72,2.9l2.65,2.92a6.74,6.74,0,0,0,.07-1.49c0-.5,0-1,0-1.53V9.24h0a.12.12,0,0,1,.09,0,.12.12,0,0,0,.09,0s.06-.05.06-.15a.18.18,0,0,1,.12.21c0,.11,0,.16.2.16l.06,0s0,0,0-.07a.22.22,0,0,0-.06-.13.27.27,0,0,1-.06-.14s0-.06.09-.13L44.38,9l-.09.13s-.08,0-.08-.13V8.75h-.12a.22.22,0,0,1-.27-.07V1.57L44,1.43l.15-.14c0-.18-.11-.31-.33-.4V.06a11.06,11.06,0,0,1,1.41,0,11.14,11.14,0,0,0,1.41,0V4.22a.13.13,0,0,0-.11,0,.08.08,0,0,1-.1,0q0,.15.09.15a.19.19,0,0,1,.12.07v.06c0,.08,0,.13,0,.14h-.1a.12.12,0,0,0-.09,0s0,.07,0,.16l.12.06V5a.06.06,0,0,1,0,.09.13.13,0,0,0,0,.09l.15,0a.56.56,0,0,1,.06.22.76.76,0,0,1,0,.31c0,.06,0,.17,0,.34a.21.21,0,0,1-.15-.19.54.54,0,0,0,0,.22.87.87,0,0,0,.09.37.87.87,0,0,1,.09.4V7c0,.07,0,.1-.06.1A.09.09,0,0,1,46.49,7a.17.17,0,0,1,0-.14.56.56,0,0,1-.33-.31c-.06-.14-.15-.22-.26-.22l-.09,0-.09,0s-.06,0-.11,0a.21.21,0,0,1-.16.11V6.31a.22.22,0,0,0-.09.13.49.49,0,0,0,0,.15.23.23,0,0,0,0,.09.26.26,0,0,1,0,.1.08.08,0,0,0,.08-.07.07.07,0,0,1,.07-.06h.06a.78.78,0,0,1,0,.14.91.91,0,0,0,0,.17.08.08,0,0,0,.09.09.15.15,0,0,1,.1-.14c.07,0,.1-.07.08-.13V6.71a.16.16,0,0,1-.12-.18.4.4,0,0,1,.25.06.31.31,0,0,1,.1.15l.06.19a.47.47,0,0,0,.12.18.3.3,0,0,0,.14.22.25.25,0,0,1,.1.22c-.08,0-.14-.06-.18-.16a.39.39,0,0,0-.1.28.62.62,0,0,1-.05.28c-.06-.07-.11-.1-.15-.1a.49.49,0,0,1-.17-.06.61.61,0,0,0,0-.17A.25.25,0,0,1,46,7.45l0,0a.6.6,0,0,1,.06-.27c0-.09-.07-.12-.1-.11s-.08,0-.16,0l-.21.22a.37.37,0,0,1-.27.12.13.13,0,0,1-.1,0l-.08-.08a.49.49,0,0,0-.14.34.56.56,0,0,0,.2.44.8.8,0,0,1,.27.42V8.35h.06q.15,0,.15.21l.09-.12s0,.07.07.08l.11,0a.35.35,0,0,1-.06.09.09.09,0,0,0,0,.1H45.6a.28.28,0,0,1,0-.1.2.2,0,0,0,0-.09l-.12-.09v.15q-.12.06-.18,0l0,.19a.29.29,0,0,0-.09.21h-.15a.31.31,0,0,0,0,.11.37.37,0,0,1,0,.11l-.08.12a.66.66,0,0,1,.23.17.38.38,0,0,0,.3.11V10c-.18,0-.28-.11-.3-.2a.48.48,0,0,0-.18-.26s0,0,0,.06v.12a.46.46,0,0,0-.18-.06q-.15,0-.15.12c0,.17,0,.25.15.25s.16.08.18.25a.27.27,0,0,1,.17-.16.69.69,0,0,1,.24-.06c.06,0,.07.05,0,.16l.16,0c.09,0,.09,0,0-.08a.46.46,0,0,1,.28,0c.09,0,.14-.05.16-.21a1.33,1.33,0,0,1,.37.32.47.47,0,0,1,0,.48l.12-.09v.09a.14.14,0,0,1,0,.06A.13.13,0,0,0,46.58,10.84Zm-13.91.22h.06a1.38,1.38,0,0,1,.16-.39,1.4,1.4,0,0,0,.16-.41l-.1.12a.14.14,0,0,1-.1.06.18.18,0,0,1-.12-.12.17.17,0,0,0-.06.12.25.25,0,0,1-.09.15l-.16-.06a.56.56,0,0,0-.2,0h-.09a.25.25,0,0,0,.23.2.67.67,0,0,0,.31,0,0,0,0,0,0,0,0l0,0a.17.17,0,0,1-.08.12.15.15,0,0,0-.07.12C32.58,11,32.61,11.06,32.67,11.06Zm-.27-2.5-.12.11a.14.14,0,0,0-.06.11.5.5,0,0,0,0,.12.49.49,0,0,1,0,.12.7.7,0,0,0,.18-.17c.06-.07.11-.1.15-.1a.32.32,0,0,1,.15.3.59.59,0,0,1,0,.19c0,.08-.08.1-.16.06a.27.27,0,0,0,.24.2c.12,0,.17.08.17.2a.17.17,0,0,1,0,.12l0-.12a.18.18,0,0,0-.12.16.14.14,0,0,0,.09.13A.34.34,0,0,0,33,10h0a.18.18,0,0,1,.11-.17.54.54,0,0,1,.22,0,.12.12,0,0,1,0-.09.12.12,0,0,0,0-.09h-.12A.34.34,0,0,1,33,9.58a.56.56,0,0,0-.19-.09.32.32,0,0,0,.14-.2.26.26,0,0,1,.18-.2.46.46,0,0,0-.09-.2A.58.58,0,0,1,33,8.68l-.06,0a.37.37,0,0,1-.23-.11,1,1,0,0,1-.18-.2Q32.52,8.56,32.4,8.56Zm-.15,3v-.09l0,0Zm.09-2.93V8.56s-.06,0-.06,0Zm0-.06h.06V8.41S32.34,8.46,32.34,8.56Zm.12,1.6a.09.09,0,0,1-.07,0s0,0,0,.07a.12.12,0,0,1,.08,0S32.46,10.2,32.46,10.16Zm.44-1.81s0,0,0-.08V8.13q0-.12-.12-.06V8a.35.35,0,0,1,0-.13.33.33,0,0,0,0-.15c0-.1,0-.16-.09-.17a.35.35,0,0,1-.18-.11.92.92,0,0,0-.06.37,1,1,0,0,0,.07.36.29.29,0,0,0,.29.2Zm-.17,2.71s0,.06,0,.06l0-.06Zm.44,0,0,0a0,0,0,0,1,0,0h.06c0-.09-.08-.13-.12-.13L33,11l-.08,0-.09.07a.75.75,0,0,1,.16.15.21.21,0,0,0,.16.09h.06l.06,0v-.09a.08.08,0,0,0,0-.08S33.21,11.06,33.17,11.06Zm-.32,1.75H33v-.06s0-.06-.11-.06l-.09.06Zm.2.77q-.15,0-.15.06a.14.14,0,0,1,.11,0S33.05,13.62,33.05,13.58Zm0-4.9,0,0,0,0Zm.06,0h-.06c0,.05,0,.07,0,.07Zm.21-.95a.1.1,0,0,1,.06-.09.1.1,0,0,0,.06-.09v-.1a.48.48,0,0,0-.21-.06.05.05,0,0,0-.06.06c.06,0,.07.08,0,.16S33.18,7.73,33.32,7.73Zm.18,4.16h0s0,.06.1.06h.19a.2.2,0,0,1,.06-.15,1.47,1.47,0,0,0-.22-.39,1.38,1.38,0,0,1-.22-.42.83.83,0,0,0-.06.34.29.29,0,0,1-.09.22l.09,0c.1,0,.15,0,.15.14A.75.75,0,0,0,33.5,11.89Zm-.06,4.86v0s0,0,0-.06v-.09a.78.78,0,0,0,0-.14s0-.08-.07-.08a.52.52,0,0,1-.07.11.44.44,0,0,0-.08.11h.06a.07.07,0,0,1,.07.06A.08.08,0,0,0,33.44,16.75Zm-.12-6.93a.22.22,0,0,0-.06.13.21.21,0,0,0,.05.09.1.1,0,0,0,.07.06s.06,0,.06-.09a.11.11,0,0,0,0-.09A.2.2,0,0,1,33.32,9.82Zm.06,6a0,0,0,0,0,0,0,.07.07,0,0,0,.07-.05s0,0,.08,0,0-.14-.06-.22a.16.16,0,0,0-.18-.12.94.94,0,0,0-.06.28A.11.11,0,0,0,33.38,15.8ZM33.32,8l0,0,0,.09.39.21a.31.31,0,0,1,0-.23c0-.07,0-.12-.12-.17s0,.09-.11.08S33.34,8,33.32,8Zm.12,2.65a.56.56,0,0,0,.06-.22v-.06h0a.13.13,0,0,0-.15.15C33.32,10.61,33.36,10.66,33.44,10.66Zm.06,2.15q.12.12.18.12c.09,0,.15,0,.17,0s.1,0,.24,0v-.09a.53.53,0,0,0-.06-.24l-.32,0A.22.22,0,0,0,33.5,12.81Zm.32-2.15h0v-.07a.86.86,0,0,0,0-.15.15.15,0,0,0-.08-.12c0,.08,0,.09-.08,0s-.08,0-.12,0v.06a.14.14,0,0,0,.06.11s.05.09,0,.17h0s.06,0,.07,0S33.78,10.66,33.82,10.66Zm.06-3.33q.06-.18.21-.12h.06s0,0,0,0a.13.13,0,0,0,0,.08c0,.1.07.15.21.14s.19.06.15.2h.17q.09,0,.09-.06V7.55a.17.17,0,0,0-.14-.1q-.09,0-.12-.12c0-.12-.06-.18-.12-.17s-.11-.09-.15-.29h0a.14.14,0,0,1-.1,0,.15.15,0,0,0-.11,0h-.09a.21.21,0,0,0-.06.16v.17A.49.49,0,0,0,33.88,7.33Zm-.06,1.23a0,0,0,0,0,0,0h0q.15,0,.15-.12V8.41A.21.21,0,0,0,33.82,8.56Zm.48,1.54s-.07,0-.09,0h-.09A.08.08,0,0,1,34,10a.2.2,0,0,0-.09.18.38.38,0,0,1-.06.22l.27-.05C34.21,10.32,34.26,10.25,34.3,10.1ZM34,6.25h.12V6.1H34Zm.24,10.23s-.06,0-.07,0a.09.09,0,0,0-.08,0h0a.13.13,0,0,0,0,.07q0,.09.12.09ZM34,10.84l.18,0a.27.27,0,0,0,.15-.15.26.26,0,0,1-.14-.11.24.24,0,0,0-.13-.11.5.5,0,0,0,0,.12.57.57,0,0,1,0,.13A.25.25,0,0,1,34,10.84Zm.33-2-.11,0s0,0,0,.06l.1,0S34.36,8.85,34.36,8.81ZM34.45,6l.09-.06a.05.05,0,0,0-.06-.06.17.17,0,0,0-.12.06l0,0,0,0,0,0,0,0S34.43,6,34.45,6Zm0-.4a.22.22,0,0,1,.06.13h.09a.19.19,0,0,0,.13,0s.08,0,.16,0l0-.07q0-.3-.24-.3C34.5,5.27,34.42,5.37,34.42,5.57Zm.12,5.7q0-.18-.12-.21v0A.19.19,0,0,0,34.54,11.27ZM35,7.79a.31.31,0,0,1-.09.22c.1.1.19.14.27.11a.32.32,0,0,1,.27,0A.47.47,0,0,0,35.28,8l-.15-.16v.09s0,.07,0,.07,0-.16-.12-.16Zm.65-.86a0,0,0,0,0,0,0s0,0,.12.08a.13.13,0,0,1,.09.17h.06a.26.26,0,0,0,.21-.08A.67.67,0,0,1,36.2,7a.21.21,0,0,0,.2.12s0,0,0-.06,0,0,0-.06a.14.14,0,0,1,0-.06.09.09,0,0,0,0-.06h0a0,0,0,0,0,0,0s-.06,0-.19-.06a.87.87,0,0,1-.25-.07c-.08,0-.1.09-.06.14a.24.24,0,0,1,.06.14.05.05,0,0,1-.06.06.87.87,0,0,0-.07-.17.31.31,0,0,1-.05-.17l.06-.12-.21.06a.23.23,0,0,1-.15-.24.34.34,0,0,0,0-.11.36.36,0,0,1,0-.11l-.23,0a.21.21,0,0,0-.18.14.06.06,0,0,1,0,.09.27.27,0,0,0,0,.12l.24.09a.33.33,0,0,0,.23,0,.2.2,0,0,1,0,.11.16.16,0,0,0,0,.08S35.56,6.89,35.6,6.93Zm-.06,1.75h0c.06,0,.09,0,.09.07a.25.25,0,0,1-.15.09l0,0V8.75a.19.19,0,0,1-.06-.13s0,0,0-.06h0v.06Zm-.08-.61h.08a.13.13,0,0,1,.11,0,.13.13,0,0,0,.1,0l0,0A.46.46,0,0,0,35.84,8a.94.94,0,0,0-.06-.28H35.6A2.44,2.44,0,0,1,35.46,8.07Zm0,.68s.08,0,.08,0v0h0S35.46,8.71,35.46,8.75Zm.47-3.45a.09.09,0,0,0,0,.06q0,.09.12.09l.09-.09.09,0h0l0,0a1,1,0,0,0-.27-.06L36,5.24V5.08h-.06q-.09,0-.09.12Zm0,2.58h.27a.29.29,0,0,0-.09-.21H36A.48.48,0,0,1,35.93,7.88Zm0,.68h.12A.05.05,0,0,0,36,8.5Zm.39,0h0s0,0,.07,0,.07,0,.07.07v0h0v0a.46.46,0,0,1,.18-.06.33.33,0,0,1,.25.11c.07.07.13.1.17.08v0a.32.32,0,0,1-.08.23c-.05,0,0,.13,0,.23h-.12l0,0c0,.08,0,.13.1.14l.17,0V9.42q0-.12.09-.12l.06,0a.25.25,0,0,1,0,.07.43.43,0,0,0-.2.22.33.33,0,0,0,.28.09,1.27,1.27,0,0,1,.28,0,.53.53,0,0,1,.24.06,0,0,0,0,0,0,0q.21,0,.15-.21S38,9.52,38,9.52a1,1,0,0,1-.24.06V9.42q0-.12-.06-.12t-.12.12a.57.57,0,0,0-.09-.17s-.08,0-.18.05V9.13c0-.07,0-.11.06-.11V8.9a.56.56,0,0,1,.06-.22h0l0,0,0,0h-.06s-.06,0-.07,0a.08.08,0,0,0-.07,0v.19q-.12,0-.12-.09l.06-.1-.18,0a.23.23,0,0,1-.15-.11V8.35a.12.12,0,0,1,.09,0,.12.12,0,0,0,.09,0,.19.19,0,0,1,0-.13.5.5,0,0,0,0-.12q0-.09-.06-.09a2.44,2.44,0,0,0-.28.14.59.59,0,0,1-.29.07.49.49,0,0,1-.2-.06l0,.06a.16.16,0,0,0,.06.14A.28.28,0,0,1,36.32,8.56Zm-.06-1.17,0,0s.05,0,.15.09l.2.1h0a.11.11,0,0,0-.12.12l.11.08.1.07a.24.24,0,0,1,.2-.13.81.81,0,0,0,.25-.08l0-.06s0-.06-.09-.06-.12,0-.12-.1a.09.09,0,0,1,.09-.1l.21,0,.2-.06a.12.12,0,0,0,.09-.13c.06,0,.09,0,.09.11s0,.11.09.11.06-.07.06-.09A.24.24,0,0,0,37.56,7l-.06.12-.09,0a.13.13,0,0,1-.1,0,.14.14,0,0,0-.1,0h0a.36.36,0,0,1-.33.25.25.25,0,0,1-.15-.09.36.36,0,0,0,.18-.28q0-.09-.12-.15l.05,0a.1.1,0,0,1,.07,0c.06,0,.11,0,.15.13a0,0,0,0,0,0,0,1.5,1.5,0,0,0,.35,0v0a.16.16,0,0,1,.05-.11.15.15,0,0,0,0-.11v0a.42.42,0,0,1-.18,0,.2.2,0,0,1-.17-.09L37,6.44a1.41,1.41,0,0,1-.24.2.67.67,0,0,0-.21.23.48.48,0,0,1,.06.21c0,.11,0,.16-.1.17l-.22,0Q36.2,7.27,36.26,7.39Zm.32,1.42a.09.09,0,0,0,0,.06.08.08,0,0,0,.06.08h.09s.06-.07.06-.09a.11.11,0,0,0-.12-.12A.05.05,0,0,0,36.58,8.81Zm.18.55a.06.06,0,0,1-.07,0s0,0,0,0S36.76,9.4,36.76,9.36Zm0-3.32c.06,0,.09,0,.09.1s0,.11.09.11h0A.14.14,0,0,1,37,6.14a.12.12,0,0,0,.06-.1L37,6a.14.14,0,0,0-.1,0,.07.07,0,0,0-.07,0A.22.22,0,0,1,36.76,6Zm.15,1.84V8A0,0,0,0,0,37,8V7.88l0,0h0l-.06,0,0,0,0,0,0,0Zm.44-1.44c0-.11,0-.17-.11-.19a.18.18,0,0,0-.06.13.13.13,0,0,0,.14.09ZM37.29,10v0q0,.09.06.09v0Q37.35,10,37.29,10Zm.27-3.51q-.15,0-.15.06a.14.14,0,0,1,.11,0S37.56,6.57,37.56,6.53Zm0,1.88a.05.05,0,0,1,0,0h-.05l-.06,0,0,.06A.17.17,0,0,0,37.56,8.41ZM37.41,10a3.28,3.28,0,0,1,.26.43.58.58,0,0,0,.34.31L38,10.61a.2.2,0,0,1,0-.11.19.19,0,0,1,0-.12.21.21,0,0,0,0-.12A.49.49,0,0,0,38,10q0,.09-.06.09s-.09,0-.14-.12a.22.22,0,0,0-.19-.12A.25.25,0,0,0,37.41,10Zm.15.68v-.1a.17.17,0,0,0-.15-.18.58.58,0,0,1,.05.14A.25.25,0,0,0,37.56,10.66Zm.33-2.1q-.15,0-.15.06a.12.12,0,0,1,.1,0S37.89,8.6,37.89,8.56Zm0,2.22a.14.14,0,0,1-.11,0s0,0,0,.05S37.89,10.82,37.89,10.78Zm-.06-1.42h0c.08,0,.12,0,.13-.09a.3.3,0,0,1,.08-.18h0c-.12,0-.19,0-.21-.07a.55.55,0,0,0-.06.19A.53.53,0,0,0,37.83,9.36ZM38,6.65h-.18a.39.39,0,0,0,0,.14s0,.08.09.08A.52.52,0,0,0,38,6.65Zm-.12.74a.46.46,0,0,0,.18.06s.06,0,.06-.07a.23.23,0,0,1,0-.11C38,7.27,37.91,7.31,37.89,7.39Zm.26,1.51,0,.06a.32.32,0,0,0,0,.16.18.18,0,0,0,.15.09.05.05,0,0,0,.06-.06q-.12,0-.12-.06a.22.22,0,0,0,.12-.19s0-.05-.06-.09,0,.06-.06.08Zm.18-1.23,0,0h0l0,0s0,0,.09,0A0,0,0,0,0,38.33,7.67Zm.15,3.26q-.15,0-.15.06T38.48,10.93Zm.12-1.57s-.07,0-.09,0,0,0,0,0S38.6,9.4,38.6,9.36Zm.12-1a.19.19,0,0,0,.06-.13q0-.15-.12-.15a.17.17,0,0,0,0,.12A.29.29,0,0,0,38.72,8.35Zm.86,2.43a.08.08,0,0,1-.08,0s0,0,0,.05S39.58,10.82,39.58,10.78Zm0,.89.1.05h.17v-.06q0-.21-.15-.21h-.06A.48.48,0,0,1,39.58,11.67Zm3.05,2.44a.06.06,0,0,1-.07,0s-.05,0-.05.05S42.63,14.15,42.63,14.11Zm.27,1.29h.21v-.22H43a.44.44,0,0,1-.06.1.12.12,0,0,0,0,.09Zm.74-2.16a.17.17,0,0,0-.12-.06.09.09,0,0,0,0,.06l0,0h.06Zm.12,1.14a.12.12,0,0,0-.09,0,0,0,0,0,0,0,0s0,.06,0,.06S43.72,14.42,43.76,14.38Zm.06,2.77h0a.35.35,0,0,0,.3-.12H44l-.13,0a.05.05,0,0,0-.06.06Zm.06-9.42q.18,0,.21-.12H44a.08.08,0,0,0-.07.08Zm.86-1.2.12.06c0,.08,0,.14.15.19s0-.14-.09-.16a.76.76,0,0,1-.18-.09V6.31a.78.78,0,0,1-.22,0,.85.85,0,0,0-.23,0l-.14,0a.12.12,0,0,0-.09.13l0,.12.17.06.18,0,.15,0Zm-.59,8.25h0a.19.19,0,0,0,.17-.12h0A.18.18,0,0,0,44.15,14.78Zm.26-7.45s-.06,0-.06,0h-.06v0s0,0,.06,0S44.41,7.35,44.41,7.33Zm-.06,1.14.06,0a.31.31,0,0,0,.33-.28.28.28,0,0,0-.16-.12A.39.39,0,0,1,44.41,8v.12a.27.27,0,0,1,0,.14.15.15,0,0,0,0,.14Zm.12,8.25v0l0,0,0,0Zm.15-11.88-.06-.07v0l0,0Zm0,0h0s0,.06.09.06Zm.06,4s0,0,0,0h0v0l0,0Zm.06.28a.1.1,0,0,1-.09,0s0,0,0,.05S44.74,9.13,44.74,9.09Zm-.06-.28v0a.05.05,0,0,0,.06.06S44.68,8.83,44.68,8.81Zm.33,0a.15.15,0,0,0-.11-.16c-.07,0-.1-.08-.1-.18a.35.35,0,0,1-.06.09.12.12,0,0,0,0,.09c0,.07,0,.11.12.14A.24.24,0,0,0,45,8.81Zm.11-.53V8.19c0-.1,0-.16-.11-.18a.17.17,0,0,0-.06.12A.29.29,0,0,0,45.12,8.28Zm0,.74c0-.12,0-.19-.11-.21v0C45,8.94,45.05,9,45.12,9ZM45,12h.11V11.8H45Zm.06,6a.1.1,0,0,0,.08,0,.19.19,0,0,0,.18-.13.24.24,0,0,0-.15,0C45.11,17.86,45.07,17.9,45.07,18Zm0-11.34v.09c0,.07,0,.11.06.13a.18.18,0,0,0,.06-.13q-.09-.09-.12-.09l0,0Zm.27-.74v0a.15.15,0,0,0-.07-.14.71.71,0,0,1-.14-.1V5.7q0,.21.18.21Zm.21,5,.06-.09.09.06a.12.12,0,0,0,.09,0,.15.15,0,0,1,0,.1.12.12,0,0,0,0,.09h-.12a.86.86,0,0,0-.39.09l0-.12a.13.13,0,0,1,.12-.14c.08,0,.11-.07.09-.17A.54.54,0,0,1,45.6,10.93Zm-.15-6.31h-.06q-.09,0-.09.06c0,.1,0,.16.09.16s.06,0,.06-.1a0,0,0,0,1,0,0,.12.12,0,0,1,0-.09h0v0Zm-.06,2.16-.06.15h.06a0,0,0,0,0,0,0Zm.06-.47s.07.07.09.07,0,0,0,0a.15.15,0,0,1,.08-.08.16.16,0,0,0-.18-.12q-.09,0-.09.06Zm.06,5.42a.06.06,0,0,1-.07,0s0,0,0,.05S45.51,11.78,45.51,11.73Zm.15-3.66v0a.1.1,0,0,1-.08.11s-.07,0-.07.07a.05.05,0,0,1-.06-.06.13.13,0,0,1,.15-.15Zm.92.68a.74.74,0,0,1,.06.27v.47a.33.33,0,0,0-.14-.1.38.38,0,0,1-.13-.09q-.12,0-.12.09a.38.38,0,0,1,0,.16l0,.09L46,9.49a.76.76,0,0,1-.21-.19,1.16,1.16,0,0,0-.06.15.12.12,0,0,1-.12.1l-.15-.06a1,1,0,0,1,.33-.36A.6.6,0,0,0,46,8.75a.12.12,0,0,0,.09,0,.25.25,0,0,0,.15,0,.36.36,0,0,1,.21-.05v0q0-.09,0-.09a.18.18,0,0,1,.12.16v0Zm-1.13,2s0-.06.15-.06S45.53,10.72,45.45,10.72Zm0,.27c0,.07,0,.1.09.1s.09-.05.09-.1l0-.06Zm.21,2V13c0-.05,0-.07-.08-.08a.31.31,0,0,1-.13-.08v.09c0,.09,0,.13.12.13Zm-.15.89a.27.27,0,0,1,.15-.15.21.21,0,0,0,.12-.19l-.06-.09-.16.14a.22.22,0,0,0-.11.17Zm.09,1.94,0-.06a.19.19,0,0,1,0-.12.3.3,0,0,0,0-.16v-.06a.48.48,0,0,1-.21-.06v.06A.48.48,0,0,0,45.6,15.86Zm0,.15c-.1,0-.15,0-.15.07S45.58,16.06,45.6,16Zm.06,2.44a.12.12,0,0,1-.1,0s-.05,0-.05.05S45.66,18.49,45.66,18.45ZM45.72,5.7a.1.1,0,0,1-.09,0s0,0,0,0S45.72,5.74,45.72,5.7Zm-.06,1.35v.06a0,0,0,0,0,0,0Zm.12.5-.12-.1V7.33h.27a.44.44,0,0,1-.08.11A.3.3,0,0,0,45.78,7.55ZM45.84,6l-.06.13a.29.29,0,0,0,.15.06s.07,0,.11.09v0a.12.12,0,0,1,0-.09.12.12,0,0,0,0-.09H46L45.84,6V5.91q0-.12-.06-.15a.17.17,0,0,0-.06.12Q45.81,6,45.84,6Zm.2,6.5v0h0l0-.09h0a.2.2,0,0,0-.2.11,1.55,1.55,0,0,0-.07.23c.1,0,.15,0,.16-.12S46,12.47,46,12.47Zm0,2.81a.32.32,0,0,0-.27.12h.09a.16.16,0,0,0,.18-.12v0l0,0,0,0Zm-.15-8.57h.06s0,0,0,0ZM46,13a.13.13,0,0,0-.09,0s-.06,0-.06,0l0,0a.1.1,0,0,0,.07,0Zm-.06-8.41s-.06,0-.06,0a.09.09,0,0,0,.06,0c0,.08,0,.12.11.12V4.56a0,0,0,0,0,0,0l0,0c0-.11,0-.16,0-.16s-.12,0-.12.13A.1.1,0,0,0,45.93,4.56Zm0,.06V4.56H46A.05.05,0,0,1,45.93,4.62Zm0,7s0-.06.11-.06,0,.06,0,0A.06.06,0,0,0,45.93,11.61Zm.06-7s0-.06,0-.06h0v.06Zm.32,1.2.06-.06V5.64c0-.09,0-.13-.09-.13a.22.22,0,0,0-.13.06s-.08.09-.08.13,0,.06,0,.06.08,0,.11,0A.17.17,0,0,0,46.31,5.76Zm-.21,0v0l.06.06S46.14,5.8,46.1,5.76Zm0,1.45.11,0s0,0,0-.07h0A.12.12,0,0,0,46.1,7.21Zm0,1s0-.06,0-.06l.1,0s0,.06,0,.06Zm.06-1.84h.15c.08,0,.12,0,.12-.07s-.08,0-.07-.14a1.64,1.64,0,0,0,0-.2h-.12a.11.11,0,0,0-.09.07.12.12,0,0,1,.06.15Zm.21,4.28a.12.12,0,0,0-.09,0,0,0,0,0,0,0,.06A.12.12,0,0,0,46.37,10.66Zm-.06,4.52a1.1,1.1,0,0,0-.06.31l.06.12v-.06a.18.18,0,0,1,.08-.21.26.26,0,0,0,.1-.22h0s-.06,0-.07,0,0,0-.08,0h0l0,0,0,0ZM46.37,4.9h-.06a0,0,0,0,0,0,0Zm0,.86h-.06v0q0,.09,0,.09a.12.12,0,0,0,0-.09Zm-.06,1.91h0q.09,0,.09.12l0,0s.06,0,.12-.09v.09c0,.11,0,.17-.09.2a.41.41,0,0,1-.18.05.43.43,0,0,1,0-.2S46.35,7.77,46.31,7.67Zm.06-2v.06a0,0,0,0,0,0,0Zm0,4.06h.27v0a.54.54,0,0,1-.06.25c-.08,0-.13,0-.13-.11A.38.38,0,0,0,46.37,9.76Zm.12-1.08v0s0,0,.09,0S46.55,8.68,46.49,8.68Z"/><path class="cls-2" d="M61.47,16.75s0,0,0,0,0,0,0,0a.17.17,0,0,1,0,.12.49.49,0,0,0,0,.12c0,.1.05.14.15.09s-.08.1-.12.1a.3.3,0,0,1-.14-.05.27.27,0,0,0-.13-.05c0,.13,0,.19.06.19a.46.46,0,0,0,.18-.06.28.28,0,0,1-.17.21.24.24,0,0,0-.13.22.62.62,0,0,0-.24-.12h-.08l-.09,0a.24.24,0,0,0,.26.15.18.18,0,0,1-.12.12l0,0s-.06,0-.08.08,0,.06-.09,0-.08.08-.05.11a.16.16,0,0,1,.05.11l0,0a0,0,0,0,0,0,0,11.79,11.79,0,0,1-1.77,1.2,9.2,9.2,0,0,1-1.72.74,9.06,9.06,0,0,1-1.82.39,18.77,18.77,0,0,1-2,.1H50.55c-.31,0-.63,0-.95,0s-.64,0-1,0H48.3a.92.92,0,0,1-.36-.07l-.06-.21c-.06,0-.08,0-.07.09s0,.12-.05.12h0a1.3,1.3,0,0,1,0-.26v-.26c0-.35,0-.69,0-1s0-.67,0-1c0-.56,0-1.1-.07-1.65s-.07-1.08-.07-1.62v-.3a3.4,3.4,0,0,1,0-.45q0-.23.06-.42c0-.12,0-.17.11-.15a1,1,0,0,1-.11-.54c0-.3,0-.63,0-1V9.87c0-.19,0-.29.11-.29s.15.12.15.18a.07.07,0,0,1,0,.06.39.39,0,0,0-.08.1.15.15,0,0,0,.14,0,.24.24,0,0,1,.13,0,.24.24,0,0,1,0,.15.11.11,0,0,0,0,.12c.06,0,.11,0,.13,0a.41.41,0,0,0,.08-.13l.06-.15a.12.12,0,0,1,.12-.08.17.17,0,0,1,0-.12h0a.09.09,0,0,1,.06,0V9.52c0-.07,0-.1,0-.1l-.09.1a.37.37,0,0,0-.18-.22c-.08,0-.09-.12,0-.25a.43.43,0,0,1-.33.07.33.33,0,0,0,0,.15.27.27,0,0,1,0,.12c-.12,0-.17-.08-.17-.24V8.78l.37,0a2.34,2.34,0,0,0,.4-.1c0,.13.09.18.14.17s.14,0,.24.11a.67.67,0,0,0,.24,0,.59.59,0,0,1,.27-.05h.16c.07,0,.1.06.1.14s.08,0,0-.07a.34.34,0,0,1,0-.14.42.42,0,0,1,.18,0,.62.62,0,0,1,.25,0,.67.67,0,0,0,.26.05.49.49,0,0,0,.17-.06.55.55,0,0,1-.38.4.87.87,0,0,0,.07.17.31.31,0,0,1,0,.17.31.31,0,0,1-.33.06q.06.21.18.21a.37.37,0,0,0,.21-.06.34.34,0,0,1,.2-.06.2.2,0,0,0,0,.09.25.25,0,0,1,0,.1.53.53,0,0,1-.06.26.53.53,0,0,0-.06.26.29.29,0,0,0,.09.21s-.06,0-.07,0a.08.08,0,0,0-.07,0h-.06a.49.49,0,0,1,.2.48q0,.33,0,.54l0,.21-.09,0-.07,0s0,0,0,.08l0,.12H50.2q-.12,0-.12.09t.12.09l.17,0a.17.17,0,0,1,.12.06,1.08,1.08,0,0,0,0,.48,1.77,1.77,0,0,1,0,.51v.22a1.21,1.21,0,0,0-.65.67h.06a.17.17,0,0,0,.1,0,.2.2,0,0,1,.11,0h.06l-.06.13h.26a.37.37,0,0,1,.11.38,1,1,0,0,0,0,.45.09.09,0,0,0-.06,0c-.1,0-.14,0-.14.12l.08.09a.4.4,0,0,1-.22.12.31.31,0,0,0-.19.16.49.49,0,0,1,.27.06.29.29,0,0,0,.26,0v2.25a1.45,1.45,0,0,0,.55,0,3.48,3.48,0,0,1,.55,0,1,1,0,0,1,.34.06.47.47,0,0,1,.25.21c.06,0,.09,0,.08-.1s0-.12,0-.14l.42,0c.29,0,.6,0,.9,0s.61.05.91.05a5.8,5.8,0,0,0,3.14-.85A7.92,7.92,0,0,0,60,14.6h.15a8.92,8.92,0,0,0,.92-2.42,11.6,11.6,0,0,0,.3-2.6,6.37,6.37,0,0,1-.36-1.2,7.17,7.17,0,0,0-.35-1.2.28.28,0,0,0,.2,0,.18.18,0,0,1,.18.08V7.11A.08.08,0,0,1,61.17,7h.06a.49.49,0,0,0,0,.12l0,0c0-.09.08-.13.12-.13l.06.13a.13.13,0,0,0,.1-.16c0-.08,0-.12.11-.12s-.11-.19-.2-.2a.43.43,0,0,0-.25,0l-.35-.36a1.42,1.42,0,0,0-.39-.31.64.64,0,0,1-.06-.28.41.41,0,0,1,.15-.37.26.26,0,0,0-.31-.11c-.15,0-.23,0-.23-.14v0H60A.48.48,0,0,0,60,4.93q.09,0,.09,0s0-.07-.07-.1-.07,0-.07-.06H60a1.19,1.19,0,0,0-.44-.43.22.22,0,0,1,0-.09.2.2,0,0,0,0-.09.54.54,0,0,0-.09-.28c-.16,0-.23,0-.21.14s0,.14-.12.14V3.66a.18.18,0,0,0-.17.11.2.2,0,0,1-.18.11.27.27,0,0,1-.12,0q.15,0,.15-.09a.36.36,0,0,0-.33,0V3.57a.39.39,0,0,0-.21-.34A.35.35,0,0,0,58.41,3a.52.52,0,0,0-.18-.43s0,.06,0,.12a.66.66,0,0,0,.11.37.05.05,0,0,1-.06.06s-.06,0-.08-.06A.1.1,0,0,0,58.06,3S58,3,58,3.05a.23.23,0,0,0-.09.21.31.31,0,0,0,0,.17c0,.06.09.06.17,0a.17.17,0,0,0,0,.12c0,.11.07.19.2.25a.47.47,0,0,0,.36,0,.29.29,0,0,1,.12.15.18.18,0,0,0,.15.13.13.13,0,0,1-.09.07l-.12,0q.06.09.12.09s0,0-.06.13a.2.2,0,0,1,.19-.08c.07,0,.12,0,.14-.14a.05.05,0,0,0,0,0s0,0,0,0,.06,0,.05.12,0,.15,0,.19a.25.25,0,0,0,.09.15.25.25,0,0,0,.14.25.21.21,0,0,1,.13.21v.16L59,4.77a1.91,1.91,0,0,1-.48-.58l0,0h0A1.84,1.84,0,0,1,58.13,4a.46.46,0,0,1-.22-.27.2.2,0,0,1-.15.06,1.51,1.51,0,0,1-.67-.26,2.94,2.94,0,0,0-.75-.36.88.88,0,0,0-.26,0l-.34,0A2.49,2.49,0,0,1,55.42,3c-.1,0-.16-.07-.18-.14A.23.23,0,0,1,55,3l-.3,0H54l-.06-.16h0a8.77,8.77,0,0,0-1.7,0A8.85,8.85,0,0,1,50.49,3c0,.47,0,.95,0,1.44s0,1,0,1.48v1a7.3,7.3,0,0,1-.06.94L50,8a2.25,2.25,0,0,0-.42.24c0-.1-.1-.15-.17-.15a.43.43,0,0,0-.15.22.15.15,0,0,1-.12-.16V8h-.06A.11.11,0,0,0,49,8s-.06,0-.08,0a.05.05,0,0,0-.06.06s0,0,0,.06a.1.1,0,0,1,0,.09l0,.06-.61.05a4.74,4.74,0,0,0-.6.08V4.87c0-.15,0-.22.17-.22l-.06-.06s-.06,0-.06,0a2.88,2.88,0,0,1-.08-.68c0-.08,0-.18,0-.29a.26.26,0,0,1,.13-.23.21.21,0,0,0-.11-.16.87.87,0,0,1-.06-.32V2.59a11.18,11.18,0,0,1,.07-1.27,5.3,5.3,0,0,0,0-1.26q.32,0,.66,0h.7l2.14,0q1.07,0,2.16,0A14.7,14.7,0,0,1,55.7.2a8.74,8.74,0,0,1,1.93.54,9.51,9.51,0,0,1,1.78,1c.58.42,1.21.92,1.88,1.51a.46.46,0,0,0,.1.1.23.23,0,0,1,.08.12A7.52,7.52,0,0,1,62.52,4.8a12.3,12.3,0,0,1,.86,1.7A10.7,10.7,0,0,1,64,8.32,7.75,7.75,0,0,1,64.17,10c0,.1,0,.25,0,.43a.59.59,0,0,1-.13.4q.12,0,.12.06V11H64v-.16a.29.29,0,0,0-.21.06,1.13,1.13,0,0,0-.1.13l-.09.1a.2.2,0,0,1-.14.05l.06.11a.18.18,0,0,1,0,.11,2.93,2.93,0,0,0,.45-.28,1,1,0,0,1,0,.23v.2a3.77,3.77,0,0,1-.21,1.25c-.14.4-.26.8-.36,1.21,0,0-.07.06-.1,0a.23.23,0,0,0-.13,0,1,1,0,0,0,0,.16,1,1,0,0,1,0,.15A1,1,0,0,1,63,15a.93.93,0,0,1-.65.3l0-.06c0-.07,0-.09-.11-.07s-.1,0-.1-.09a.11.11,0,0,0-.07.09.35.35,0,0,1-.08.13l-.12-.1-.26.1-.06-.06s0-.08.11-.11.12-.07.12-.11,0-.06-.12-.06a.17.17,0,0,1,.12-.06A.19.19,0,0,1,62,15a.21.21,0,0,0,.12,0l0,0h.07a.62.62,0,0,0-.42-.4.57.57,0,0,0-.19.4.5.5,0,0,1-.25.4h-.06c-.06,0-.1,0-.13.11a.15.15,0,0,1-.14.1H61V15.4a.21.21,0,0,1-.2.15.78.78,0,0,1-.24,0,1.18,1.18,0,0,1,.24.37,1.15,1.15,0,0,0,.26.4h0a.24.24,0,0,0,.2-.08.2.2,0,0,1,.16-.07.05.05,0,0,1,.06.06v.09h.09s-.05,0-.09.06-.06,0-.06,0h-.18a2.27,2.27,0,0,1,.07.22s.07.08.17.12l.06-.11a.17.17,0,0,0,0-.1l.12.06v.15h-.21ZM47.88,5.33a.09.09,0,0,1-.07,0s-.05,0-.05.06a.11.11,0,0,1,.08,0S47.88,5.37,47.88,5.33Zm-.12,2.49a.19.19,0,0,0,.11.2.36.36,0,0,1,.16.14l0,0A.12.12,0,0,1,48.08,8c.05,0,.07-.06.07-.13V7.82A.17.17,0,0,0,48,7.76l-.13,0Zm.06,2.1s-.06.07-.06.09l.06.06Zm0,.15v.06a0,0,0,0,0,0,0h0l.12,0v0s0-.06,0-.06l0,0ZM48,6.84H47.9s-.08,0-.08.06h.12A.1.1,0,0,0,48,6.84Zm.18,6.59a.17.17,0,0,1-.12,0H48a.08.08,0,0,0-.09.09.17.17,0,0,1,.12,0,.25.25,0,0,0,.12,0A.08.08,0,0,0,48.21,13.43ZM47.88,16,48,16l.09,0a.3.3,0,0,0,.21-.1s-.07-.06-.15-.06S47.9,15.93,47.88,16ZM48.09.8h0l0,0s0,0,0,0,0,0,0,0,.07,0,.08,0,0,0,0,0A.09.09,0,0,0,48.09.8Zm.12,10.53-.12,0s-.06,0-.06.07a.16.16,0,0,1,.11,0S48.21,11.37,48.21,11.33Zm.06-.18-.12-.06a.05.05,0,0,0-.06.06.08.08,0,0,0,.09.09ZM48.59,4l0,0c-.08,0-.12,0-.12.11s-.06.09-.18,0v0s0,.06,0,.07a.28.28,0,0,1,.06.08H48.3q-.15,0-.15.12v0h.12a.09.09,0,0,0,.06,0,.26.26,0,0,0,.25-.17.42.42,0,0,0,0-.33.05.05,0,0,0,.06-.06s0,0,0,0a.08.08,0,0,1,0,0A.33.33,0,0,0,48.59,4Zm-.14,6.22-.12,0a.08.08,0,0,0-.06.08v0h.06a.07.07,0,0,0,.07,0A.35.35,0,0,1,48.45,10.22Zm0,1.67v-.13h-.15v0Q48.27,11.89,48.42,11.89Zm-.15.55a.21.21,0,0,0,.21-.15h-.14a.08.08,0,0,0-.07.08Zm.21-9.55c-.08,0-.12.08-.12.1a.09.09,0,0,1,.07,0S48.48,2.94,48.48,2.89Zm.06,4.41V7.21c0-.11,0-.17-.12-.19a.49.49,0,0,0-.06.19Q48.39,7.3,48.54,7.3Zm-.06,6.34s-.07,0-.09,0,0,0,0,0S48.48,13.68,48.48,13.64Zm-.06-3.05,0,0a.09.09,0,0,0,0,.06v-.1h0a0,0,0,0,0,0,0s0-.05-.06-.09A.08.08,0,0,0,48.42,10.59Zm0-.83a.05.05,0,0,0,.06.06.41.41,0,0,0,.16,0l.13-.06a.12.12,0,0,1,0,.14.39.39,0,0,0,0,.14.19.19,0,0,0,.18.12.29.29,0,0,1,.15-.12.76.76,0,0,0,.18-.09.12.12,0,0,0-.06-.1.12.12,0,0,1-.06-.12v0a.62.62,0,0,0,.24,0,.46.46,0,0,0,.2,0c-.08,0-.1-.09-.07-.14a.33.33,0,0,0,0-.17.25.25,0,0,0-.23-.09.09.09,0,0,1-.06,0l-.06,0h.12a.08.08,0,0,0-.09-.09s-.08,0-.11.09-.07.07-.13,0v0s0,.06-.09.06a.1.1,0,0,1-.09,0,.06.06,0,0,1,0-.08h-.26l.08.06s0,0,0,.06a.1.1,0,0,0,.09.06h.18c0,.07,0,.1-.1.1h-.14C48.47,9.55,48.39,9.62,48.39,9.76Zm.15,1.57a1.38,1.38,0,0,1-.06.16l-.06.12,0,0a.27.27,0,0,0,.2-.11.5.5,0,0,0,.15-.2l0,0,0,0h-.2l0,0Zm.92,1.51H49.4a1.44,1.44,0,0,0-.26.28.36.36,0,0,1-.28.18l-.12-.06a.47.47,0,0,1-.26.34l.22.11c.07,0,.1.1.1.2v0a.41.41,0,0,0-.21.17.35.35,0,0,1-.17.17h.17s.08.05.18,0l.21,0s0,0,0,0l0,0,0,0a.12.12,0,0,1,.12.08.09.09,0,0,0,.09.07l.06,0v-.06q0-.12.06-.12l.15.06a1.55,1.55,0,0,0,.07-.35.54.54,0,0,1,.16-.33.39.39,0,0,1-.2-.37l0-.43h0v-.06q0-.21.18-.21h0s0,.08.06.12,0-.06.08-.06H50s.06,0,.06,0v0H50a.1.1,0,0,1-.09,0,.12.12,0,0,0-.09,0v-.15a.1.1,0,0,1-.07,0h-.08c-.14,0-.21.06-.22.18A.74.74,0,0,0,49.46,12.84Zm-1-.15.12.09a.78.78,0,0,0,0-.14c0-.05,0-.07-.07-.07h0Zm.26-.68a.17.17,0,0,1,.06-.18h-.15s0,0,0,0a.07.07,0,0,0,0,.05C48.57,12,48.6,12,48.68,12Zm.06-4.31a.1.1,0,0,1-.07,0h-.05l0,0a.12.12,0,0,0,.09,0S48.74,7.72,48.74,7.7Zm-.06,3.51.06-.06c0-.1,0-.16-.09-.16l-.06,0a.13.13,0,0,1,0,.1S48.64,11.21,48.68,11.21Zm.06.89q-.15,0-.15.06T48.74,12.1Zm.06,4.53h-.12a.1.1,0,0,0-.09.06.22.22,0,0,1,.14,0C48.78,16.69,48.8,16.67,48.8,16.63Zm0-1.51v0a.37.37,0,0,0-.12-.31l0,.13Q48.65,15.12,48.8,15.12Zm0-4.59h0l0,0,0,0s0,.06,0,.06S48.76,10.57,48.8,10.53Zm0-6.13.12.07V4.33s0-.08-.09-.08h0Zm.12,1.54h0l-.05,0,0,0a.12.12,0,0,0,.09,0A0,0,0,0,0,48.92,5.94ZM48.8,7.58a.12.12,0,0,0,.09,0,.24.24,0,0,0,.18-.1s-.07-.06-.15-.06S48.8,7.49,48.8,7.58Zm0,1.69h.12a.05.05,0,0,0-.06-.06Zm.06-5.54a.17.17,0,0,0,.12.06.35.35,0,0,0,.27-.13.17.17,0,0,0-.12-.06A.35.35,0,0,0,48.86,3.73ZM49,15.18l-.1,0s0,0,0,.07l.09,0S49,15.22,49,15.18Zm.56-5,.06.13H49.4l0,.06c0,.1,0,.15.13.15s.13,0,.13.12,0,.06,0,.1a.11.11,0,0,1,0,.12.24.24,0,0,0-.15,0s0,0,0,.09,0,.11-.13.16,0,0,0,0a.29.29,0,0,0-.18.08.22.22,0,0,0-.09.17l.06.09a0,0,0,0,1,0,0,.09.09,0,0,1,.06,0,.12.12,0,0,0,.09,0s.06,0,.06,0v0a.16.16,0,0,1,.12-.18l.2,0h0s0,0,0-.05,0,0,0,0a1,1,0,0,0,.05-.2.53.53,0,0,1,.07-.2H50v.07a.13.13,0,0,0,0,.1.16.16,0,0,1,0,.11v.06H50c0,.17-.11.25-.21.25a.27.27,0,0,0-.24.15l.12.19a.54.54,0,0,0,.15.15.24.24,0,0,1,.08-.09.1.1,0,0,0,0-.09h-.06c-.08,0-.12,0-.12-.13v0a.17.17,0,0,0,.15.05.21.21,0,0,1,.18,0c0-.11,0-.16.12-.16a.2.2,0,0,0,.2-.12v0s0,0,0-.09a.73.73,0,0,1,0-.22.38.38,0,0,0-.13-.09.38.38,0,0,1-.13-.09.13.13,0,0,0,0-.1s0-.06-.09-.06v-.06a.2.2,0,0,0,0-.11.17.17,0,0,1,0-.1H50a.2.2,0,0,0-.16-.11l-.23,0a.2.2,0,0,0,.06-.15l-.06-.06a.16.16,0,0,0-.11.15Zm-.5,2h0a.11.11,0,0,1,.15.08.14.14,0,0,0,.15.11.19.19,0,0,1,0-.13.5.5,0,0,0,0-.12.08.08,0,0,0-.09-.09s0,.06-.05.06H49.1S49.07,12,49.07,12.1Zm.33-2.65c0,.05-.07.07-.15.07h-.12c0-.09,0-.13.12-.13Zm-.21,1.42a0,0,0,0,0,0,0h0l.12,0v0s0-.07,0-.08a.14.14,0,0,0,.06-.07h-.18q-.09,0-.09.06Zm-.06,1h.18v-.16h-.18Zm.18-5.55a.08.08,0,0,1-.08,0s0,0,0,0S49.31,6.32,49.31,6.28Zm.2-1.2a0,0,0,0,0,0,0l0-.12s-.06,0-.14,0a.11.11,0,0,0-.12.12.2.2,0,0,0,.15.06Zm.06,6.81c-.08,0-.11,0-.11.06S49.57,11.93,49.57,11.89Zm.06-7.82h0v0h0c0-.07,0-.1,0-.1l-.09,0A.19.19,0,0,0,49.63,4.07Zm.09,5,0,0H49.6l0,0,0,.06A.17.17,0,0,0,49.72,9.12Zm.12.46s0,0,0,0,0,0-.08,0v0a.06.06,0,0,0,.12,0Zm-.12,3c0-.05,0-.07,0-.07h0C49.78,12.55,49.76,12.57,49.72,12.57Zm.12,1.07h0a.13.13,0,0,0-.08,0v0s0,0,.06,0S49.84,13.66,49.84,13.64ZM49.78,8.5h.12v.15h-.12Zm.12,3.26c-.08,0-.12,0-.12.07a.08.08,0,0,1,.08,0S49.9,11.81,49.9,11.76Zm.06-1.5q0,.15-.09.15h0Q49.84,10.32,50,10.26Zm0,2.52q-.12,0-.12.06a.06.06,0,0,1,.07,0S50,12.82,50,12.78Zm0,2.62h-.12a.05.05,0,0,0,.06.06Zm0-3.79.15.06a.11.11,0,0,0,.12-.12.17.17,0,0,0-.12-.06.1.1,0,0,0-.09,0Zm.15,3.45a.15.15,0,0,1-.11,0s0,0,0,0S50.11,15.1,50.11,15.06Zm0-6.41A.16.16,0,0,1,50,8.47c0-.14.06-.22.18-.22v.1a.33.33,0,0,1,0,.15A.33.33,0,0,0,50.11,8.65Zm0,1.88a.15.15,0,0,0,0,.11s0,0,0,0S50.07,10.53,50.11,10.53Zm0,3.58s-.06.05-.06.15.05,0,0,0A.13.13,0,0,1,50.11,14.11Zm.26-2.78-.1,0s0,0,0,.07l.09,0S50.35,11.37,50.37,11.33Zm0-3a.19.19,0,0,1,.12.18c-.1,0-.14-.05-.14-.15Zm.51-6.07h.06c.1,0,.15,0,.15-.16S51.06,2,51,2a.16.16,0,0,1,0,.11A.41.41,0,0,0,50.88,2.25Zm.27,17.46s0,0,0,0h0s0,0,0,0,0,0,0,0,.06,0,.07,0a.05.05,0,0,0,0,0A.09.09,0,0,0,51.15,19.71Zm.44-.58.06,0a.07.07,0,0,1,.07.05.08.08,0,0,0,.08.05,0,0,0,0,0,0,0l0,0c0-.09-.09-.13-.15-.13S51.63,19,51.59,19.13Zm1-17.1q-.12,0-.12.06T52.57,2Zm.3-.86a.09.09,0,0,0,0,.06l0,0h0l0,0S52.89,1.17,52.87,1.17Zm1.06,17.62a.38.38,0,0,0,0-.16c0-.06-.05-.12-.14-.18v.09A.18.18,0,0,0,53.93,18.79Zm.39-16.42h.15l.06-.06q-.09-.06,0-.15h-.21Zm.27-1.14h.12A.28.28,0,0,1,54.79,1h-.16c-.07,0-.1,0-.1.06A.2.2,0,0,1,54.59,1.23Zm.53.53s.06,0,.07,0,0,0,.08,0h0V1.71c0-.05,0-.08-.06-.08S55.2,1.76,55.12,1.76Zm2.08,0a.14.14,0,0,1-.11,0s0,0,0,.05S57.2,1.8,57.2,1.76Zm.38.55a.36.36,0,0,0,.14,0s.07,0,.07-.07V2.16h-.15Zm0,15.24h.12s.06-.07.06-.09-.08-.09-.12-.09,0,.07,0,.08,0,0,0,.07ZM58,19.19a.12.12,0,0,1,0-.1.06.06,0,0,0,0-.09v0A.12.12,0,0,1,58,19s-.07,0-.07,0A.19.19,0,0,1,58,19.19Zm.06-17s0,.07,0,.09a.24.24,0,0,0-.06.18h.06c.06,0,.09,0,.09-.07s0-.09,0-.11h.06a.08.08,0,0,0,.09.09q.12,0,.12-.09l-.09-.09-.12.09v0q0-.09,0-.09s0,0,0,.12h-.14V2.16h0l0,0,0,0Zm.2,16.07h.06q.15.06.21-.12h-.18q-.09,0-.09.06Zm.21-.86q-.15,0-.15.06a.14.14,0,0,1,.11,0S58.5,17.41,58.5,17.37Zm.12-15.89,0,0h0l0,0s0,.06,0,.06S58.58,1.52,58.62,1.48Zm.06.34s0,0,0,0,0,0,0,0l0,0s.07.06.09.06A.09.09,0,0,0,58.68,1.82Zm.06,1.57a.18.18,0,0,0,.06-.13.12.12,0,0,0-.06-.1.21.21,0,0,0-.12-.05A.34.34,0,0,0,58.74,3.39Zm0,15.4q-.12,0-.12.06a.06.06,0,0,1,.07,0S58.74,18.83,58.74,18.79ZM59.39,3h0a.35.35,0,0,1,0-.13q.06-.15.15-.15v.06a.23.23,0,0,0,.13,0s.08,0,.14,0V2.65l-.09-.09-.12.09v0c0-.17-.09-.25-.27-.25l-.09,0-.09,0a.13.13,0,0,0,0,.08s0,0,0,.08a.27.27,0,0,1,0,.12l-.06.12a.12.12,0,0,0,.09,0,.12.12,0,0,1,.09,0v.06C59.33,2.92,59.35,3,59.39,3Zm.21-.28s0-.06,0-.06h0A.05.05,0,0,1,59.6,2.71Zm.06.8a0,0,0,0,0,0,0s0,0,.09,0V3.6c0,.13.06.19.18.19h0V3.73a.51.51,0,0,1,0-.3.67.67,0,0,0,0-.32h0s0,0-.08,0a.66.66,0,0,1-.21,0l-.06.12a.28.28,0,0,0,0,.13.31.31,0,0,0,0,.1A.36.36,0,0,1,59.66,3.51ZM59.93,16h-.12a.1.1,0,0,0-.09.06h.12A.1.1,0,0,0,59.93,16Zm-.15,1.54h.15v-.06q0-.09-.12-.09l-.09.09ZM60,15.74q0-.09-.06-.09l0,0S60,15.74,60,15.74Zm.06-.46s0,0,0,0a.05.05,0,0,0-.05,0s0,0,0,.07H60a.05.05,0,0,0,0,0A0,0,0,0,0,60.1,15.28ZM60,5.14a.05.05,0,0,0,.06.06v0S60.08,5.14,60,5.14Zm.06-.83h.33l0-.09c0-.16-.09-.25-.27-.25L60.1,4Zm.42,11.09-.24-.06-.09.06a.42.42,0,0,1,.12.08.19.19,0,0,0,.12,0A.47.47,0,0,0,60.52,15.4Zm-.21.12a.09.09,0,0,1-.07,0s-.05,0-.05.06a.11.11,0,0,1,.08,0S60.31,15.56,60.31,15.52Zm.06-8.9a.05.05,0,0,1,.06-.06.17.17,0,0,1,.12.06s.09,0,.15,0-.06.16-.18.16l-.09,0S60.45,6.66,60.37,6.62Zm.27-1a.1.1,0,0,1-.09,0s0,0,0,0S60.64,5.65,60.64,5.61ZM60.58,7s0-.06.12-.06S60.66,7,60.58,7Zm.18-1.88a.12.12,0,0,0-.09,0,0,0,0,0,0,0,.06h0Zm-.06,10H61V15h0C60.85,15,60.78,15.06,60.7,15.18Zm.2-.3q.18,0,.21.12a.27.27,0,0,0,.18.18.48.48,0,0,0,.06-.21.65.65,0,0,0-.12-.37.17.17,0,0,1-.12,0H61q-.09,0-.09.06a.05.05,0,0,1,0,.09A.12.12,0,0,0,60.9,14.88ZM61,16.29a0,0,0,0,0,0,0l0,0Zm0-12a.35.35,0,0,0,.24.12.12.12,0,0,0,.12-.09.49.49,0,0,0,0-.15.27.27,0,0,1-.19.06A.28.28,0,0,0,61,4.31Zm0,12s0,0,0,0,0,0,0,0l0,0,0,0Zm.21-10a.13.13,0,0,1-.1,0s-.05,0-.05,0S61.23,6.39,61.23,6.34Zm-.15,9.4s.05-.06.15-.06S61.18,15.74,61.08,15.74Zm.21-12.51h-.06s0,.07,0,.07ZM61.23,14h.25c.05,0,.08,0,.08,0l-.11,0-.1,0-.06-.09A.48.48,0,0,1,61.23,14Zm.18.46a.11.11,0,0,1-.08,0s0,0,0,.07a.09.09,0,0,1,.07,0S61.41,14.49,61.41,14.44Zm-.12,1.17h.12v.13h-.12Zm.18-12.16h0q-.09,0-.09.12l0,0Q61.47,3.6,61.47,3.45Zm-.06,12.9h.06v-.06A.05.05,0,0,0,61.41,16.35Zm.06.47v-.07a0,0,0,0,0,0,0Zm.09-1.14s-.06-.08-.06-.1,0-.09.12-.09.17.06.17.19Zm.17-8c-.07,0-.11,0-.11.06S61.73,7.68,61.73,7.64Zm0,3.79h.11v-.16h-.11Zm.2,5.32v.07s0,.06,0,.06a.19.19,0,0,1-.12-.16v0l.15.06.06-.12a.05.05,0,0,1,.06.06S62,16.75,61.88,16.75Zm0-2.15H62v-.16h-.12Zm0,1.35s0-.06,0-.06a.09.09,0,0,0,.07,0s0,.06,0,.06A.11.11,0,0,0,61.88,16Zm.06-2.71h0a.34.34,0,0,0,.15,0,.15.15,0,0,0,.09-.14L62.12,13a.14.14,0,0,1-.09.13A.16.16,0,0,0,61.94,13.24Zm.18.28s-.06,0-.06-.09A.15.15,0,0,0,62,13.3s-.06.08-.06.1a.27.27,0,0,0,0,.12.1.1,0,0,0,.09.06A.05.05,0,0,0,62.12,13.52Zm.15,1.08q-.15,0-.15.06Q62.27,14.66,62.27,14.6Zm.18,1.2a.12.12,0,0,0,.09,0s0,0,.08,0h0a.1.1,0,0,1-.08.11c-.06,0-.07.06,0,.16a.14.14,0,0,1-.08-.09.49.49,0,0,1,0-.12h-.06v-.06l-.14,0s-.07,0-.07-.07l0,0A.8.8,0,0,1,62.45,15.8Zm-.18-7.15v0c0,.07,0,.11,0,.14a.34.34,0,0,0,.17,0l.06,0V8.59h0A.35.35,0,0,0,62.27,8.65Zm0,4h.27a.21.21,0,0,1,.05-.19.26.26,0,0,0-.19.07Zm.12.43h.06a.17.17,0,0,0,.2-.15.15.15,0,0,1-.13-.1.14.14,0,0,0-.13-.09.9.9,0,0,1,0,.15A1.29,1.29,0,0,1,62.39,13.12Zm.15,1.6a.18.18,0,0,0,.05.19.32.32,0,0,0,.18.06l.15,0v0c0-.15-.05-.22-.15-.22l-.12,0Zm.32-3.63q-.15,0-.15.06T62.86,11.09Zm0,3.45q-.15,0-.15.06s.07,0,.09,0S62.84,14.58,62.86,14.54ZM63,8H63l0,0,0,0A0,0,0,1,0,63,8ZM63,9.86h.39a.51.51,0,0,0,0-.16,1,1,0,0,0,0-.15,1.38,1.38,0,0,0-.06-.16h-.09c-.18,0-.27.09-.27.25A.61.61,0,0,0,63,9.86Zm0,1.57h.12v-.16h0C63.07,11.27,63,11.32,63,11.43Zm.53,1.81h.12v-.12h-.12ZM64,9.92V9.76l0,0,0,.06Z"/><path class="cls-2" d="M92.37,13h.09a.28.28,0,0,1,.24.06s0,.06-.09.06a.53.53,0,0,1-.24-.06V13h0a.3.3,0,0,1-.23-.11l-.18-.22a1.34,1.34,0,0,0-.21-.2.44.44,0,0,0-.27-.09l.06-.06c0-.15,0-.2-.12-.16l.06-.09a.5.5,0,0,0-.11.16.18.18,0,0,1-.15.09l-.12.12a.32.32,0,0,0,.24.09.65.65,0,0,1,.29.07.47.47,0,0,0,.09.12s0,.08,0,.12a.36.36,0,0,1,.24.08l.18.15a1.33,1.33,0,0,0,.19.14.4.4,0,0,0,.31,0c0,.08-.15.27-.34.57l-.67,1.06c-.25.41-.53.85-.83,1.31s-.58.9-.84,1.3-.5.74-.68,1a2.27,2.27,0,0,1-.38.49,1,1,0,0,0-.25-.42.53.53,0,0,1-.19-.35l.06-.12a3.07,3.07,0,0,1-.8-1c-.2-.37-.42-.73-.65-1.08a.25.25,0,0,0,.13-.12.37.37,0,0,1,.13-.15c0-.19,0-.28-.15-.28a.75.75,0,0,1-.29-.06l-.09.15a1.22,1.22,0,0,1-.3-.37,3.51,3.51,0,0,0-.27-.4.56.56,0,0,1,.09-.17.3.3,0,0,0,.06-.2.12.12,0,0,0,0-.09c-.14,0-.2.07-.2.28a5.53,5.53,0,0,1-.48-.71,4.81,4.81,0,0,0-.5-.71l.06-.18a.61.61,0,0,0,0-.16.25.25,0,0,0-.09-.15,0,0,0,0,0,0,0,.09.09,0,0,1-.06,0s0,0,0-.06l-.12.06a.48.48,0,0,0-.21-.06c-.06-.13-.17-.32-.32-.59l-.51-.85-.5-.8A1.43,1.43,0,0,0,83,9.92v-.1a.42.42,0,0,0,0-.2,1.63,1.63,0,0,1-.11-.2.12.12,0,0,1-.09,0,0,0,0,0,1,0,0V9.36a.46.46,0,0,0-.16.23.83.83,0,0,1-.1.23,2.71,2.71,0,0,0,.13.3.59.59,0,0,1,.07.29v.18a.48.48,0,0,0-.26-.09h-.15a.27.27,0,0,0,.06.19.38.38,0,0,1,.09.18c.16,0,.21-.07.18-.21a.38.38,0,0,1,.07.18,1.7,1.7,0,0,1,0,.22,1.62,1.62,0,0,1,0,.21.42.42,0,0,1-.07.19.48.48,0,0,0,0,.24.85.85,0,0,1,0,.25l-.06.12s.06,0,.08.06a.61.61,0,0,1,0,.16c0,.08,0,.12-.11.12a.71.71,0,0,1,.11.34v.06c-.15,0-.24.09-.26.16s-.09,0-.09-.07a.19.19,0,0,1,0-.12.21.21,0,0,0,0-.12v0a.44.44,0,0,1-.25,0c-.09,0-.14.07-.14.23a.12.12,0,0,1-.09-.12v-.15c-.06-.11-.12-.16-.19-.16a.24.24,0,0,1-.19-.12v-.12h-.06a.05.05,0,0,1,0-.05s0,0,0,.05h.06s.06,0,.06-.07a.35.35,0,0,0,0-.13.47.47,0,0,1,0-.17v-.13a.27.27,0,0,0,.14-.21.22.22,0,0,1,.18-.19l0,0s0,0,0-.07,0-.08,0-.08a.31.31,0,0,1-.24-.26,3.21,3.21,0,0,0-.08-.36h-.06a.41.41,0,0,0-.36.19.53.53,0,0,0-.06.43c-.22,0-.35,0-.38.12s-.13.15-.27.13a.15.15,0,0,1-.08-.11,1.24,1.24,0,0,0,0-.16l-.06-.12s-.07,0-.15,0a.51.51,0,0,0-.06-.28l-.15-.06a.11.11,0,0,0-.11,0v-.06a.84.84,0,0,0-.08-.33A.77.77,0,0,1,79.8,10,.34.34,0,0,1,80,9.7a.36.36,0,0,1-.14-.26c0-.11,0-.22,0-.32a2.49,2.49,0,0,1,0-.36A1,1,0,0,1,80,8.41a1.58,1.58,0,0,1-.14-.62c0-.24,0-.46,0-.65,0-.63,0-1.26,0-1.87s0-1.25,0-1.88c.1,0,.13,0,.1-.14a1,1,0,0,1,0-.26A.19.19,0,0,1,80,2.83a.31.31,0,0,1-.18-.27,2.86,2.86,0,0,1,0-.37,3.28,3.28,0,0,1,0-.4c0-.17.08-.27.18-.31l0,0a.14.14,0,0,0,0-.06V1.36c0-.09,0-.13-.08-.14l-.15,0a1.5,1.5,0,0,0,0-.2,1.41,1.41,0,0,1,0-.2.41.41,0,0,1,.09-.28H80V.74a.11.11,0,0,1,.13,0,.11.11,0,0,0,.13,0,.25.25,0,0,1,.11.17,1.41,1.41,0,0,1,0,.2,1.29,1.29,0,0,1,0,.24.21.21,0,0,1-.15.19.09.09,0,0,0,0,.12l.13,0,.15-.09c.06,0,.08.05.07.14a1.72,1.72,0,0,0,0,.2s.07,0,.09,0,0,.05.06.05,0,0,0-.12a.25.25,0,0,1,.1.12c0,.06.06.09.1.09a0,0,0,0,0,0,0l0,0c.7,1,1.35,2,2,3.05s1.28,2.06,2,3.05a.27.27,0,0,0,0,.12.1.1,0,0,1-.06.09,1.2,1.2,0,0,1,.34.27c.13.13.17.25.13.35a26.75,26.75,0,0,1,1.81,2.76c.56.95,1.15,1.88,1.78,2.78.32-.47.63-.94.92-1.4s.59-.94.86-1.43a.11.11,0,0,1,.12,0,.24.24,0,0,0,.15,0l0-.12a1.1,1.1,0,0,1,.25-.77,1.62,1.62,0,0,1,.61-.52.15.15,0,0,1-.09-.16c0-.1.08-.21.24-.34a.19.19,0,0,1,.12-.18c.06-.33.23-.49.53-.49L92.48,9a.2.2,0,0,1,0-.14V8.75c.16,0,.27.06.31.14A.21.21,0,0,0,93,9V9c0,.11,0,.16-.11.16s-.1,0-.1.12v.06a.14.14,0,0,1,.1.05.09.09,0,0,0,.11,0L93,9.36q0-.12.09-.06a.14.14,0,0,0,.11.06l.06-.06a.15.15,0,0,0-.12-.11.09.09,0,0,1-.08-.1V9s.06,0,.08,0h.09a.12.12,0,0,0,.09,0,.34.34,0,0,0-.28-.26.84.84,0,0,1-.37-.17L92.94,8a1.55,1.55,0,0,1,.35-.48v0s0,0,0,0l0,0a3,3,0,0,1,.15-.32.48.48,0,0,1,.24-.23l.09-.15-.06,0s0,0,.06,0a20.37,20.37,0,0,1,1.38-2.35c.5-.75,1-1.53,1.43-2.33h.24q0-.18-.12-.15A6.27,6.27,0,0,1,97.31,1a6.15,6.15,0,0,0,.55-.93A17.88,17.88,0,0,1,98,1.85c0,.18,0,.41,0,.68a1.6,1.6,0,0,1-.14.64s0,.06,0,.05l.09,0a0,0,0,0,0,0,0,1,1,0,0,1,.06.4v2c0,.53,0,1.07,0,1.61s0,1.1,0,1.65q0,2.37,0,4.71t0,4.71V20.7H95.13v-1c0-1.21,0-2.41,0-3.59s0-2.37,0-3.58l0-1.24h.12c.08,0,.12,0,.11-.06a.5.5,0,0,1,0-.12.2.2,0,0,1,0-.09.15.15,0,0,0,0-.07l.13,0,.14,0s.06,0,.06-.07v-.09h-.06a.45.45,0,0,0-.23,0l-.22.06a.35.35,0,0,1,.17-.26l.26-.14a.61.61,0,0,0,.22-.15.31.31,0,0,0,.06-.28l.12.06A.46.46,0,0,0,96,10,.56.56,0,0,0,96,9.76l-.34.46a.56.56,0,0,1-.49.22.45.45,0,0,1-.09-.28,1.36,1.36,0,0,1,0-.29.71.71,0,0,0,0-.29s.07,0,.09,0l.06,0a0,0,0,0,0,0,0V9.49a.91.91,0,0,0-.44-.13,1,1,0,0,0-.27.06c0,.07,0,.09.12.08h.21a7.92,7.92,0,0,1-.35.72,1.48,1.48,0,0,1-.51.57,8.54,8.54,0,0,1-.55,1.09,4.82,4.82,0,0,1-.76.94h-.12l-.06-.12a.13.13,0,0,1,0-.12c0-.09,0-.1-.09-.05s-.08,0-.12,0a.18.18,0,0,0-.06.1.34.34,0,0,0,.06.2A.3.3,0,0,1,92.37,13Zm-12.22-.62.06.06-.06-.06-.1.05s-.06,0-.1-.05,0,.14.11.12a.08.08,0,0,1,0,.08.08.08,0,0,0-.06.08.12.12,0,0,1-.12-.1.49.49,0,0,1,0-.15l0-.09.12.06v-.22c.07,0,.11,0,.11-.06V12a.14.14,0,0,1,0-.09.15.15,0,0,1,.1-.14.47.47,0,0,1,.16,0,.46.46,0,0,1-.07-.13c0-.08,0-.12,0-.14l-.06-.13a.11.11,0,0,1,.09.05s0,.06,0,.08v.15q.12,0,.18-.15a.18.18,0,0,1,.08.09s0,.08,0,.12a.17.17,0,0,0,.06-.12c.06,0,.09,0,.09,0v.1c0,.06.06.1.18.1a.32.32,0,0,1-.08.13.15.15,0,0,0,0,.11q0,.09.12.09l-.09.1H80.6l-.06-.16a.05.05,0,0,0-.06-.06l-.09,0s-.06,0-.06.06,0,.06,0,.06a0,0,0,0,0,0,0s-.06.07-.07.07h-.08a.08.08,0,0,0-.09.09l0,0ZM82.29,19s0,0,0,0,0,0,0,0l0,0a1.54,1.54,0,0,0,.19.17.35.35,0,0,1,.13.23h0l-.06,0q-.09.09-.09.12c0,.05,0,.06,0,0a.09.09,0,0,1,.08,0s0,0,.08.07V20.7h0c-.06,0-.09,0-.09-.07a.17.17,0,0,0-.06-.12h0s0,0,0,.06a.09.09,0,0,0,0,.06.33.33,0,0,1-.27.1h-.3a10.05,10.05,0,0,1-1.08-.07,2.9,2.9,0,0,0-1,0V15.28s.06-.06.12-.16v0a5.31,5.31,0,0,0,0-.68c0-.22-.05-.45-.07-.67h.06a0,0,0,0,1,0,0,.14.14,0,0,1,0,.06.13.13,0,0,0,0,.06s0,.06.09.06h0v-.12a.09.09,0,0,1,0-.09s0,0,0,0h0l0,0a.09.09,0,0,0,0,.06s0,0,0,0l.06.06s.06,0,.06-.12v-.28c0,.06-.08.08-.18.05s-.14,0-.14.07h-.12l0,0a.14.14,0,0,1,.1-.15c.07,0,.09-.09,0-.22l0,0H80l.11,0a.27.27,0,0,1,.12,0c.06,0,.1,0,.12.11a.9.9,0,0,1,0,.25,2.44,2.44,0,0,1,0,.27c0,.1,0,.16,0,.2s0,.22.12.22a.25.25,0,0,0,.21-.15.19.19,0,0,1-.09-.19.25.25,0,0,1,.09-.2l.15-.14v-.09s0-.06-.11-.06H80.6l0-.06s0-.07.12-.07.12,0,.12-.06h-.09s-.06,0-.06,0,.14-.12.18-.12h0v.09h0v0A.16.16,0,0,1,81.1,13h0a.2.2,0,0,0-.06.15q0,.09-.15.06l0,.06a.14.14,0,0,0,.11.06s0,.08,0,.16,0,.12-.07.12v.28H81L81,14l.12-.06a.13.13,0,0,1,.12,0,.41.41,0,0,1-.15-.28.17.17,0,0,1,.12-.06v-.06a.12.12,0,0,1,.06-.12.1.1,0,0,0,.06-.1q.12-.06.12-.15a.31.31,0,0,0,0-.08.31.31,0,0,1,0-.1c0-.05,0-.07,0-.07s-.06-.07-.06-.09a.2.2,0,0,1,0-.08.17.17,0,0,0,0-.1.18.18,0,0,1,.09.15l0,.12c.06,0,.08,0,.07.1s0,.09,0,.09v.09h0a.33.33,0,0,1,.23.06c.08,0,.13-.06.14-.12a.26.26,0,0,1,.07-.15s.07,0,.15.13.09.14,0,.14v.13h.06c.08,0,.12,0,.12-.08v-.14q0-.12.15-.12h.08a.19.19,0,0,0-.08.15.47.47,0,0,0,0,.17.88.88,0,0,1,0,.17.3.3,0,0,1,0,.18.26.26,0,0,0-.14,0s-.06,0-.1,0-.13.11-.09.19a.46.46,0,0,1,.06.18c0,.07-.1.08-.18,0v0c0,.06,0,.09.1.09s.11,0,.11.12v0h-.27a.15.15,0,0,1,0,.11.09.09,0,0,0,0,.11.4.4,0,0,0-.13-.13.14.14,0,0,1-.08-.15.55.55,0,0,0-.14.37c0,.25.12.35.38.31h0L82,14.94a.1.1,0,0,1-.06-.1s0-.07.12-.1a.19.19,0,0,0,.12-.2h0a.06.06,0,0,1,.09,0,.2.2,0,0,0,.09.09s.05-.07,0-.15,0-.13.12-.13h.09v.34l0,.06s0,0,0,0l0,.1a.12.12,0,0,1,0,.09s-.06,0-.14,0a.38.38,0,0,1,.14.34v.15h0a.28.28,0,0,1-.22-.09.21.21,0,0,0-.22-.06v-.22s0,.06-.09.06,0,0,0,0a.09.09,0,0,0-.06-.08.6.6,0,0,0,0,.23,1.69,1.69,0,0,1,0,.23.75.75,0,0,1,0,.2.3.3,0,0,1-.12.17,0,0,0,0,0,0,0V16a.2.2,0,0,0,.18.22.22.22,0,0,1-.07.09.24.24,0,0,0-.08.09.17.17,0,0,0,.12.06.48.48,0,0,1,.21-.06.55.55,0,0,0-.06.19q0,.15.18.15a.37.37,0,0,0,.27-.12.62.62,0,0,1,0,.18.32.32,0,0,1-.29.33c-.2.05-.3.12-.3.2s0,.15.09.15a.31.31,0,0,1-.1.08.23.23,0,0,0-.11.08l.05.1s0,0,.1,0a.64.64,0,0,1-.12.21.26.26,0,0,0,0,.22l-.49.08a1.59,1.59,0,0,0-.49.17c0,.08,0,.11.14.1h.19v.06c0,.1,0,.15.16.14l.26,0s0,.06.11.06.15,0,.15-.12a.66.66,0,0,0,0-.21l.15.09V18a.25.25,0,0,0,.15,0,.21.21,0,0,1,.12-.05l.06,0h.06a.78.78,0,0,0-.15.44q0,.21-.3.36c0,.09,0,.14.09.16a.12.12,0,0,1,.09.12l0,0S82.23,19.06,82.29,19Zm-2.46-8.13c.1,0,.15.06.15.19s0,.21-.15.21a.43.43,0,0,1,0-.2S79.87,11,79.83,10.87ZM79.89,2l.06,0S80,2,80,2s0,.07,0,.07h.09a.49.49,0,0,1,0-.15.49.49,0,0,0,0-.15.2.2,0,0,0-.15-.19.44.44,0,0,0,0,.23S80,1.93,79.89,2Zm0,.68H80q.09,0,.09-.12c0-.07,0-.1-.12-.1h0ZM80,17.37h0a.36.36,0,0,0,.32-.12,1,1,0,0,0,.1-.34.46.46,0,0,0-.18-.06.27.27,0,0,0-.24.15.49.49,0,0,0,0,.31ZM80,14V14s0,0,0,0Zm0-12.62s0,0,0,0,0,0,0,0l0,0Zm.09,6.09h.06a.24.24,0,0,0,.27-.27A.26.26,0,0,0,80.39,7h-.06c-.18,0-.27.09-.27.28A.26.26,0,0,0,80.15,7.45Zm0,6.41v-.09h-.09v0S80.09,13.86,80.15,13.86Zm.33,1.08.06.06,0,.06a.12.12,0,0,0,.1.12l.17,0,.14,0q.09,0,.09-.09L80.92,15v.06s0,.06-.07.06h-.13v-.06q.06-.12-.06-.12l-.12.06-.06-.06a.4.4,0,0,1-.06-.22q0-.12-.15-.12h-.06a.42.42,0,0,0,0,.18.3.3,0,0,0,.15.28v0Q80.33,14.94,80.48,14.94Zm.24-6v0l0,0a.94.94,0,0,0-.14.26.69.69,0,0,1-.16.27q.12.06.06.15a.13.13,0,0,0,0,.18h0a.13.13,0,0,0-.08,0c-.06,0-.1.06-.12.16a1.26,1.26,0,0,0,0,.21h.12l0,0s.07,0,.09-.15a1.22,1.22,0,0,0,0-.22h.06a.1.1,0,0,1,.09,0l.09.06v0a.31.31,0,0,1,.09-.24c.06-.05.07-.12.06-.23l0,0A.17.17,0,0,0,81,9.39a.14.14,0,0,1,.15,0,.41.41,0,0,1,0-.18.43.43,0,0,0,0-.19.13.13,0,0,0,0-.07l-.06-.11H81.1a.36.36,0,0,0-.19,0A1.06,1.06,0,0,1,80.72,9Zm-.51,1.82h.06a0,0,0,0,0,0,0Zm.06,5.79h0a.12.12,0,0,1,.09,0,.12.12,0,0,0,.09,0,.05.05,0,0,0,.06-.06.24.24,0,0,1-.09-.08.1.1,0,0,0-.09,0Q80.27,16.51,80.27,16.57Zm.21-4.77a.05.05,0,0,1,0,0,.13.13,0,0,0-.08,0l0,0,0,.06A.17.17,0,0,0,80.48,11.8Zm-.15.83c0-.06,0-.1.06-.1s0,.05,0,.13l0,.09Zm.15,5.42-.1,0s0,0,0,.06l.11,0S80.48,18.09,80.48,18.05Zm0,.77s-.07-.06-.09-.06a.05.05,0,0,0-.06.06h.06s0,0,.06,0A0,0,0,0,1,80.48,18.82ZM80.39,20a.15.15,0,0,1,.12-.08c.06,0,.09,0,.09-.08v0a.29.29,0,0,1-.21-.09l0,.06a.13.13,0,0,1,0,.1.11.11,0,0,0,0,.09S80.35,20,80.39,20Zm0-18.94a.17.17,0,0,1,.12.06s0,.06,0,.06a.18.18,0,0,0,.1.09.11.11,0,0,1,.08.1s0,.05-.06.09l-.06-.12-.06.06c-.06,0-.09,0-.09-.1Zm.09,12a0,0,0,0,1,0,0h0l0,0s0,0-.06,0S80.48,13.05,80.48,13Zm.12-9.58h0s0,0,0,0,.09,0,.09-.15l-.09-.16a.2.2,0,0,1,0,.11.2.2,0,0,0,0,.11Zm.21.83q0-.21-.12-.21h0a.53.53,0,0,0-.06.24q0,.09.12.09T80.81,4.28Zm-.21,7h0a.19.19,0,0,0,.12,0,.09.09,0,0,1,.12,0,1.17,1.17,0,0,1-.05-.2c0-.07,0-.1-.13-.08h0l0,.06a.21.21,0,0,1,0,.13.19.19,0,0,0,0,.12Zm0,1.08h0a.15.15,0,0,1,.13.06s.09,0,.16,0-.09.17-.17.19-.11.09-.09.21c-.06-.06-.08-.12,0-.17a.34.34,0,0,0,0-.17Zm0,4.16h.12v-.16H80.6Zm.06,2v0c0-.06,0-.09.1-.09a.1.1,0,0,0,.11-.1.48.48,0,0,1-.21-.06l0,0a.11.11,0,0,1,0,.09.13.13,0,0,0,0,.1Zm.06-4.37-.06.09.15.06v0S80.78,14.15,80.72,14.11Zm.09.55s-.06,0-.06,0l.09,0h.08v-.06q0-.12.06-.12l.06.06a.12.12,0,0,0,0-.09.53.53,0,0,0,0-.13.08.08,0,0,0-.08-.06l0,0a0,0,0,0,1,0,0l.06.06H80.9c-.08,0-.14.06-.18.16Zm.06,3.82q-.15,0-.15.06a.13.13,0,0,1,.1,0S80.87,18.52,80.87,18.48Zm-.06-5.79a0,0,0,0,1,0,0h0l0,0s0,0,0,0S80.81,12.71,80.81,12.69Zm0,.55h.06v-.06h0S80.81,13.2,80.81,13.24Zm.06.62s-.06,0-.06.12,0,0,0,0A.07.07,0,0,1,80.87,13.86Zm.44,1.88h.06s-.06-.09-.19-.16a.86.86,0,0,0-.26-.09c0,.06,0,.06-.11,0v.25l0,0h.05a.2.2,0,0,1,.14.06.2.2,0,0,0,.15.06ZM81.37,17a0,0,0,0,0,0,0l0,0-.5.28v0a.57.57,0,0,0,0,.18.13.13,0,0,0,.14.09H81l.09,0c0,.07.05.05.08,0a.81.81,0,0,0,0-.17c-.08,0-.12-.08-.12-.13a.2.2,0,0,1,.15-.06q.09,0,0-.15h.06V17a.44.44,0,0,0,.27.09.46.46,0,0,0,.41-.27.33.33,0,0,1-.15,0,.29.29,0,0,1-.19-.06l-.13-.13.06-.06c-.16,0-.23,0-.2.12A.18.18,0,0,1,81.37,17ZM81,14A.05.05,0,0,0,81,14,.05.05,0,0,0,81,14Zm.15.62,0,0s-.06,0-.12.09a.53.53,0,0,1,.06.15l-.12.13a.17.17,0,0,0,.12.06.24.24,0,0,0,.2-.11.24.24,0,0,1,.22-.11.09.09,0,0,0,0-.06.12.12,0,0,0-.08-.12.09.09,0,0,1-.07-.09s0-.07.12-.07v-.06h-.09a.14.14,0,0,0-.15.08A.42.42,0,0,1,81.19,14.6Zm.06-3a.2.2,0,0,0-.06.15c0,.05,0,.06.11.05a.08.08,0,0,1,.1.08l0,.06h-.06c-.16,0-.24-.07-.24-.22s.09-.12.15-.12Zm-.12-1h0a.21.21,0,0,0,.21-.13.35.35,0,0,1,.21-.2.11.11,0,0,1-.06-.1V10h-.21a.33.33,0,0,1-.1.25.28.28,0,0,0-.11.21A.12.12,0,0,0,81.13,10.59Zm.12,8.69a0,0,0,0,1-.07,0s-.05,0-.05.05S81.25,19.32,81.25,19.28Zm.39-8.07v0a.32.32,0,0,1-.06.22l0,0h0s0,0-.06.06a.1.1,0,0,1-.09.06h-.09a.58.58,0,0,0,.06-.34A.91.91,0,0,0,81.64,11.21Zm-.39,2.37v.19a.29.29,0,0,0,.06-.1.1.1,0,0,1,.09-.06s0,0,.06.09l.06,0s.06-.05.06-.13v-.24h-.06a.11.11,0,0,0-.12.12Q81.4,13.61,81.25,13.58Zm.21.68-.08,0h0l0,0h0s0,0,.05,0S81.46,14.28,81.46,14.26Zm.06,3.39,0,0H81.4s0,0,0,0l.06.06S81.48,17.69,81.52,17.65Zm-.06-3.95-.06,0,.06,0Zm0-.73s.06,0,.06-.07h-.06Zm0,.8V14h.06a.17.17,0,0,0,.1,0,.2.2,0,0,1,.11,0,.12.12,0,0,0-.14-.08C81.52,13.85,81.48,13.83,81.46,13.77Zm.18,3.66a.27.27,0,0,1-.12,0,.05.05,0,0,0-.06.06l.12,0A.05.05,0,0,0,81.64,17.43Zm-.06-4.06h.15v0c0-.05,0-.07,0-.08s0,0,0-.08a.05.05,0,0,0-.06.06Zm.06-9h.14V4.28h-.14Zm.14,5.09a.19.19,0,0,1-.1,0s0,0,0,.06l.1,0S81.78,9.53,81.78,9.49Zm0,3.2a.14.14,0,0,0,0,.06.13.13,0,0,1,0,.06.07.07,0,0,1,0,0,.05.05,0,0,0,0,0s0,0,0-.09l0-.12v-.06S81.82,12.69,81.78,12.69Zm.18,1q.09-.09.15,0h.27v-.12c-.1,0-.14,0-.12,0a.17.17,0,0,0,0-.1h0c-.06,0-.09,0-.09-.13a1.23,1.23,0,0,1-.44.13.34.34,0,0,1,.07.17c0,.07,0,.1.13.1Zm-.12,4.28c-.08,0-.11,0-.11.07S81.84,18,81.84,17.92Zm.21-8V9.86c0-.07,0-.1-.07-.1a.2.2,0,0,1-.14-.06v.06s0,.07.08.08A.26.26,0,0,1,82.05,9.92Zm0,1.88a.28.28,0,0,1-.13,0s-.08,0-.08.06a.27.27,0,0,1,.12,0A.1.1,0,0,0,82.05,11.8Zm.06,1.84H82a.41.41,0,0,1-.07.11.16.16,0,0,0,0,.11l.06.12a.39.39,0,0,0,.09-.17A.3.3,0,0,1,82.11,13.64Zm-.21,2.71a.05.05,0,0,0-.06.06Zm.15-3.78h.06c.08,0,.12,0,.12-.1s0-.06-.12-.06H82a.05.05,0,0,0-.06.06Zm-.09.06h0l.06-.06h0A.05.05,0,0,0,82,12.63Zm.09,1.69V14.2a.05.05,0,0,0-.06.06Zm.06.06a.05.05,0,0,0-.06-.06l0,0S82.05,14.38,82.11,14.38Zm.12-1.2v-.09l0,0Zm.15-4.28q-.15,0-.15.06a.1.1,0,0,1,.09,0S82.36,8.94,82.38,8.9Zm-.09,4.34v-.06h-.06A.05.05,0,0,0,82.29,13.24ZM82.38,19h-.09l0,.06ZM82.5,6.1a.12.12,0,0,0-.09,0,0,0,0,0,0,0,0s0,.06,0,.06S82.46,6.14,82.5,6.1Zm-.06,3.2a.17.17,0,0,0-.06.12c0,.05,0,.07.06.07a.21.21,0,0,0,0-.13s0-.06,0-.06l0,0,0,0,0,0Zm-.06,4.22h.06l0-.06Zm.32,4v.4s-.09,0-.11-.13,0-.14-.09-.14l0,0a0,0,0,0,1,0,0s-.06,0-.06-.09.07-.16.21-.16Zm-.32,1.14a.51.51,0,0,0,.21,0s.07.07.11.19l-.14-.06s0,.07,0,.09a.2.2,0,0,1,0,.09C82.44,19,82.38,18.87,82.38,18.66Zm.24-7.2c0-.11,0-.17-.12-.19S82.54,11.46,82.62,11.46Zm-.06,2.46s0-.06.14-.06,0,.06,0,0A.13.13,0,0,0,82.56,13.92Zm.06.86v-.06l0,0Zm1.51-3.57h.15v-.15h-.15Zm.8-.89a.27.27,0,0,1,.12,0,.27.27,0,0,0,.12,0v0a.1.1,0,0,1,0-.09l.1-.1-.13-.06L85.05,10l-.06.14Zm1.48,1.48c0-.15,0-.23-.12-.25a.17.17,0,0,0-.06.12c0,.11,0,.16.15.16Zm.42,3.6v-.06s-.06,0-.06,0Zm.06-1.48H87c.17,0,.26-.1.26-.31v0a.26.26,0,0,0-.18-.09c-.15,0-.23.08-.23.25A.26.26,0,0,0,86.89,13.92Zm.26.19-.1,0s0,0,0,.06a.19.19,0,0,1,.1,0S87.15,14.15,87.15,14.11Zm.45,2.24a.08.08,0,0,1-.08,0s0,0,0,0S87.6,16.39,87.6,16.35Zm.47,1h.24a.29.29,0,0,0,.21-.06v-.16a.41.41,0,0,0,0-.18.16.16,0,0,0-.16-.09.22.22,0,0,0-.21.1.5.5,0,0,0-.06.24A.24.24,0,0,0,88.07,17.37Zm0-1a.28.28,0,0,1,.18.1v-.06c0-.09,0-.13-.09-.13A.08.08,0,0,0,88.07,16.41Zm.57,0a.09.09,0,0,1-.08,0s0,0,0,.06a.09.09,0,0,1,.07,0S88.64,16.46,88.64,16.41Zm.15,1.45a.29.29,0,0,0,.26-.15h0a.11.11,0,0,1-.12,0,.19.19,0,0,0-.11,0Zm.77-1.45a.09.09,0,0,1-.08,0s0,0,0,.06a.09.09,0,0,1,.07,0S89.56,16.46,89.56,16.41ZM90.48,14a.08.08,0,0,1-.08,0s0,0,0,0S90.48,14.08,90.48,14ZM91,11.67l0,0s0,0,.09,0A.05.05,0,0,0,91,11.67Zm.24.13v0a.29.29,0,0,1,.09-.21l-.21-.06-.12.06a.12.12,0,0,1,.12.09A.36.36,0,0,0,91.19,11.8ZM91,11.73v.16s.06-.07.06-.09Zm.15.53,0,0A0,0,0,0,0,91.16,12.26Zm.18,2.06a.12.12,0,0,0-.09,0,.09.09,0,0,0-.06,0l.06.06S91.3,14.36,91.34,14.32Zm-.06-2.93a.81.81,0,0,1,.23.17.31.31,0,0,0,.27.11h.15a.5.5,0,0,0-.13-.17l-.15-.06a.44.44,0,0,1-.15,0s-.09-.08-.11-.18a.22.22,0,0,1-.07.09A.1.1,0,0,0,91.28,11.39Zm.5-.52a.19.19,0,0,1-.15,0l-.18,0c-.08,0-.11,0-.11.09s.11,0,.11.1l-.06.09.06,0a.14.14,0,0,0,.11-.08c0-.05.06-.08.1-.08h.06c0,.21.15.31.33.31a.43.43,0,0,0,.2,0q.12,0,.12-.09a.05.05,0,0,0-.06-.06h0s0,0,0,.06v.09A.78.78,0,0,1,92,11.1a2.11,2.11,0,0,1-.19-.23l0,0,0,0,0,0Zm-.27,1.2h.15V12h-.15Zm0,.22v.06s.06,0,.06,0Zm.33,1,0,0h0s0,0,0,0l0,0h0l-.09,0v0l0,0,0,0Zm.21-1q0-.09-.06-.09t-.09.15a.09.09,0,0,0,0,.06l.06-.12Zm.32-2.59-.12-.06h.12c0-.06,0-.11,0-.14s0-.08,0-.14a.17.17,0,0,0-.12-.06c-.06,0-.08.06-.08.17a.24.24,0,0,1-.12.23s.06.07.06.09l-.24,0,.06.16a0,0,0,0,0,0,0,.23.23,0,0,0,.07.17.16.16,0,0,1,0,.2s0,.06,0,.06a.21.21,0,0,0,.12-.05.17.17,0,0,1,.11,0,.48.48,0,0,0,0-.2.54.54,0,0,1,0-.2s0-.06.1-.05l.13,0s.06,0,.06-.07v0S92.43,9.76,92.37,9.7ZM92,9.64a.17.17,0,0,0,.12.06q0-.12-.06-.12Zm.06,2.09,0,0,0,0Zm.86-.61-.06.09.06-.09V11c0-.05,0-.07.12-.05l.14-.15,0-.09a.33.33,0,0,1,.08-.25.79.79,0,0,0,.27.19q.12,0,.12.3l.12,0h.12a.07.07,0,0,0,.07-.06.5.5,0,0,0,0-.12.12.12,0,0,1-.09,0s0,0,0-.09l.12.06H94a.41.41,0,0,1,0-.34.76.76,0,0,0,0-.34c-.12,0-.18.07-.18.22v.34a1.46,1.46,0,0,0-.28-.28.56.56,0,0,1-.2-.34L93.22,10a.29.29,0,0,0-.16,0h0a.17.17,0,0,0,.06.12l-.12.31-.12.31a.43.43,0,0,1-.19-.1l-.14-.12c0,.08,0,.13,0,.15s0,.07,0,.13l.12.06h.21v0a.22.22,0,0,1-.08.18.67.67,0,0,1-.14.11l-.14.11a.24.24,0,0,0-.06.18h-.09a.17.17,0,0,0-.2.1,1.17,1.17,0,0,0-.09.24l.19-.06h.19c.06,0,.09,0,.09-.11a.25.25,0,0,1,.06-.17l-.06-.12h.09a.43.43,0,0,1,.33.08l.29.2a1,1,0,0,1,.17-.28.85.85,0,0,0,.16-.28,1,1,0,0,1-.12-.15.18.18,0,0,0-.15-.09h-.06l-.06,0-.08.09v.06l0,0a0,0,0,0,1,0,0A.16.16,0,0,1,92.91,11.12Zm-.86.68v0a.09.09,0,1,0,.12,0,.12.12,0,0,0-.09,0Zm.26.67a.05.05,0,0,1-.06-.06s0-.06.12-.06-.05-.12-.14-.12l-.18.06a.49.49,0,0,0,0,.15q0,.09.09.09A.18.18,0,0,0,92.31,12.47Zm.21-.67a.1.1,0,0,1-.09,0,.12.12,0,0,0-.09,0h0l0,.07q0,.09.12.09Zm-.15-2.16V9.7s.06,0,.06,0Zm.21-.49-.1,0s0,0,0,.06l.11,0S92.58,9.19,92.58,9.15Zm.06,1.63-.07,0-.08,0s-.06,0-.06.09,0,.12.09.12h.06Zm.12-1a.29.29,0,0,1-.07-.1.14.14,0,0,0-.11-.08.17.17,0,0,0-.06.12s.07,0,.09.08,0,.08.09.08S92.76,9.89,92.76,9.82Zm0-.46a.46.46,0,0,0-.18-.06.37.37,0,0,0,0,.15c0,.07.06.1.1.1a.19.19,0,0,0,0-.13Zm-.18,1.57V11a0,0,0,0,0,0,0Zm0,.46h.12a.05.05,0,0,0-.06-.06Zm.12.41v0a.17.17,0,0,0,.06.12,0,0,0,0,0,0,0l0,0v0l-.06-.12c0-.09.09-.13.21-.13v0s.06,0,.06-.09v-.15c-.08.06-.15.07-.2,0s-.09,0-.13.06h0a.27.27,0,0,1,0,.14.3.3,0,0,0,0,.14s0,.05,0,0Zm.15-2.16s-.06,0-.06.08a.13.13,0,0,1,0,.1h0c.06,0,.08,0,.07.08s0,.08,0,.08A.09.09,0,0,0,93,10a.09.09,0,0,1,.06,0,.15.15,0,0,0-.09-.14A.15.15,0,0,1,92.85,9.64Zm.06-.06h0s0,0,0,.06A.05.05,0,0,0,92.91,9.58ZM93,9.49h0s0,0,0,.09S93,9.55,93,9.49Zm0-.59s0-.06,0-.06a.11.11,0,0,0,.08,0s0,.06,0,.06A.09.09,0,0,0,93,8.9Zm.06.52H93v.07h0S93,9.47,93,9.42Zm0-.06v.06s.06,0,.06,0ZM93.09,11v-.06H93A.05.05,0,0,0,93.09,11Zm.14.56s-.06,0-.06.12.06,0,0,0A.08.08,0,0,1,93.23,11.55ZM93.35,10h0s0,0,0-.06A.05.05,0,0,0,93.35,10Zm.06-.06.3-.09a.57.57,0,0,1,.3,0,.26.26,0,0,0-.08-.2.87.87,0,0,0-.15-.13l-.13-.09a.12.12,0,0,1,0-.14c-.14,0-.19.09-.16.16a.55.55,0,0,1,0,.24A.29.29,0,0,1,93.41,10Zm.33-3.05s0,0,0,0,0,0,0,0l0,0Zm.09-.22v.07s0,0,0,0Zm.38,2.53q-.15,0-.15.06a.14.14,0,0,1,.11,0S94.21,9.28,94.21,9.24Zm1.1,2.15s0,0-.07,0,0,0,0,.05S95.31,11.44,95.31,11.39Zm-.06-1.9h.06s0,0,0,0Zm.33,2a.2.2,0,0,0-.12-.19A.21.21,0,0,0,95.58,11.46Zm.06-.59.14.06q.12,0,.12-.18a.16.16,0,0,0,0-.08.16.16,0,0,1,0-.08h0s-.08,0-.08.08,0,.11-.09.11v.09Zm.32.52h0l0,0,0,0a.1.1,0,0,0,.09,0S96,11.42,96,11.39Zm0-1.23v0c0,.05,0,.07.09.07v0S96,10.22,96,10.16Zm.33.9v.06a.12.12,0,0,0,.09,0q.12,0,.12-.09a.13.13,0,0,0-.12-.07v0a.08.08,0,0,0-.09-.09s0,0-.06,0l-.12-.09a.18.18,0,0,0-.09.15.55.55,0,0,0,0,.16l.06.18Q96.17,11.09,96.29,11.06Zm-.24-.8v0a.12.12,0,0,0,.15.15h0l0-.09c0-.08-.05-.13-.15-.13Zm.18.61h.06V11q-.09,0-.09-.06Zm.06.19V11h.09v0S96.35,11.06,96.29,11.06Zm.41-.68h0a.1.1,0,0,0-.08,0,.12.12,0,0,1-.09,0l-.06-.06a0,0,0,0,0,0,0l0,0a0,0,0,0,0,0,0l.09,0,.06.06q0,.09.06.09c.09,0,.14,0,.14-.15h.06q.12,0,.12-.12A.16.16,0,0,0,96.7,10.38Zm-.32,1.85h0a.08.08,0,0,1,.1,0,.16.16,0,0,0,.11,0h.08a.35.35,0,0,0,0-.16c0-.1-.08-.21-.23-.33a1.65,1.65,0,0,0-.09.21A.69.69,0,0,0,96.38,12.23Zm.06-8h.12s.06-.07.06-.09S96.54,4,96.5,4a.15.15,0,0,1,0,.1A.12.12,0,0,0,96.44,4.19Zm.26,5.63s0-.07.11-.09.1-.05.1-.09,0-.06-.09-.06,0,.07-.1.09-.1.05-.1.09S96.64,9.82,96.7,9.82ZM96.88,9a.12.12,0,0,0-.09,0,0,0,0,0,0,0,.06h0Zm-.06,3a.34.34,0,0,0,.25-.14,1.26,1.26,0,0,0,.14-.26.27.27,0,0,0-.25.12A1.83,1.83,0,0,0,96.82,12ZM97,6.16l0,0h0s-.06,0-.06,0,.07,0,.08,0,0,0,0,0A.09.09,0,0,0,97,6.16Zm.18.28h0a.2.2,0,0,1-.11,0,.15.15,0,0,0-.1,0s0,0-.09.06a.33.33,0,0,0,.21.12A.11.11,0,0,0,97.21,6.44ZM97.15,2h.09c.2,0,.29-.11.29-.34l0-.15a1.18,1.18,0,0,1-.23.14c-.07,0-.1.1-.1.23Zm.53,9.42.06-.06q0-.15-.09-.15l0,0v.11S97.64,11.39,97.68,11.39Z"/><path class="cls-2" d="M44.68,12.32"/><path class="cls-3" d="M44.68,13.82a1.5,1.5,0,0,0,0-3,1.5,1.5,0,0,0,0,3Z"/><path class="cls-2" d="M89.86,36.17A8.7,8.7,0,0,0,89.21,34a12.5,12.5,0,0,0-7.46-6.62c-4.09-1.22-9-.26-14.66,2.84a2.73,2.73,0,0,0-1.8-1.79c-.92-.38-3.08.28-4,1.18a2.43,2.43,0,0,1-.22-.29,2.47,2.47,0,0,0-1.55-1.15,4.34,4.34,0,0,0-4,1.4,2.21,2.21,0,0,0-1.49-1.23c-1.37-.64-2.4.06-3.39.74-.31.2-.62.42-.93.58a3.18,3.18,0,0,0-3.5-1.57C43,29.26,39,34,37.44,36c0,.06-5,5.65-9.71,7.54s-8.45,2-11.56.37A10,10,0,0,1,11,37.11a1.62,1.62,0,0,0,0-.21,4.38,4.38,0,0,1,.18-1.74,9.57,9.57,0,0,1,2.72-4.35,14,14,0,0,1,16.76-.32c.26.2.52.43.77.66a6.65,6.65,0,0,0,1.75,1.27l.55.24-.39-.43A19,19,0,0,0,27.83,28a11.82,11.82,0,0,0-6.59-1.3C12.43,27.85,10.46,33.65,10,36.1v.07h0a11,11,0,0,0,4.93,8.14,14.23,14.23,0,0,0,6.87,1.74,16.2,16.2,0,0,0,2.74-.24A20.15,20.15,0,0,0,33,42.11a3.29,3.29,0,0,0,1.79,1.81c1.38.49,2.92,0,4.47-1.35a2.16,2.16,0,0,0,1.21,1.16,4.86,4.86,0,0,0,4.66-.95l.15.19a1.63,1.63,0,0,0,1.38.81c1.21.6,2.72.24,4.48-1.06A2.71,2.71,0,0,0,54.24,44c3.29-1.05,7.66-6.26,8.92-7.83l.12-.16a27.54,27.54,0,0,1,7.29-5.87c4.09-2.13,8.1-2.75,11.29-1.75,2.85.9,5.09,3,6.66,6.36q.11.45.3,1.17a2.56,2.56,0,0,1,.06,1.1,9,9,0,0,1-5.66,6.78,15.49,15.49,0,0,1-15.81-4.38l0,0h-.55l.15.2a14.93,14.93,0,0,0,13.2,6.13c3.36-.18,7.63-2.3,9.07-6.49a10,10,0,0,0,.64-2.55A1.75,1.75,0,0,0,89.86,36.17ZM34.72,43l0,0a2.2,2.2,0,0,1-.9-1.11l.15-.44a37.86,37.86,0,0,0,4.77-4.74c3-3.26,6.44-7,8.31-7.63,1-.1,1.65.14,1.95.79v.4c-.1.11-.22.26-.37.45C39.83,41.2,36.21,43.2,34.72,43Zm6.57.11a1.11,1.11,0,0,1-1.18-.79v-.45c1.81-1.79,5.52-5.64,5.57-5.68,2.46-3,6.51-7.32,7.54-7.09h.06a1.7,1.7,0,0,1,1.56.71v.43l-5.78,6.37a13.59,13.59,0,0,0-1.37,1.57C46.13,40.09,43.78,43,41.29,43.11ZM46.42,43a1,1,0,0,1-.56-.83c1.52-1.48,4.22-4.42,5.33-5.63.05-.06,4.53-5.79,7.58-7.41.71-.35,1.25,0,1.76.44.22.29.09.51-.14.86l-.12.18c-.41.41-1.09,1.23-2,2.26C55.16,36.59,49.29,43.59,46.42,43Zm20-12.26c-2,1.53-6.85,7.24-7.37,7.9a16.66,16.66,0,0,1-5.27,4.61,1.81,1.81,0,0,1-2.1-.86l-.11-.23c.5-.52,4-4.19,5.37-5.61l.22-.23.07-.09c.05-.06,4.39-6,7.51-7.06a.86.86,0,0,1,.61,0,1.48,1.48,0,0,1,.85.78c0,.06.06.11.08.16A.89.89,0,0,1,66.45,30.69Z"/><text class="cls-4" transform="translate(26.73 55.83)">ART STUDIO</text></g></g></g></svg>